<svg width="22" height="20" viewBox="0 0 22 20" fill="none" xmlns="http://www.w3.org/2000/svg">
<path d="M17.5208 12.273H16.6249V11.3772C16.6249 10.8825 16.2239 10.4814 15.7291 10.4814C15.2344 10.4814 14.8333 10.8825 14.8333 11.3772V12.273H13.9375C13.4427 12.273 13.0416 12.6741 13.0416 13.1689C13.0416 13.6636 13.4427 14.0647 13.9375 14.0647H14.8333V14.9605C14.8333 15.4553 15.2344 15.8564 15.7291 15.8564C16.2239 15.8564 16.6249 15.4553 16.6249 14.9605V14.0647H17.5208C18.0155 14.0647 18.4166 13.6636 18.4166 13.1689C18.4166 12.6741 18.0155 12.273 17.5208 12.273Z" fill="#BA6102"/>
<path d="M15.7291 6.89801C13.6696 6.89801 11.8388 7.89614 10.695 9.43398C10.2379 9.33783 9.7644 9.28689 9.27916 9.28689C8.76298 9.28689 8.26007 9.34452 7.77626 9.45298C5.4996 9.96318 3.64654 11.6069 2.84286 13.7585C2.56402 14.505 2.41113 15.3124 2.41113 16.1549C2.41113 16.6497 2.81223 17.0507 3.30696 17.0507H10.8078C11.9572 18.5049 13.736 19.4396 15.7291 19.4396C19.1869 19.4396 21.9999 16.6266 21.9999 13.1688C21.9999 9.71104 19.1869 6.89801 15.7291 6.89801ZM15.7291 17.648C14.9174 17.648 14.1561 17.4299 13.4989 17.0507C12.1563 16.2763 11.25 14.8269 11.25 13.1688C11.25 11.9738 11.7213 10.8875 12.4867 10.0835C13.3031 9.22591 14.4543 8.68967 15.7291 8.68967C18.1989 8.68967 20.2083 10.699 20.2083 13.1688C20.2083 15.6386 18.1989 17.648 15.7291 17.648Z" fill="#BA6102"/>
<path d="M1.94824 3.74761C1.94824 5.16099 3.04516 6.32217 4.43232 6.42656C3.99145 5.63214 3.7399 4.71875 3.7399 3.74761C3.7399 2.77647 3.99145 1.86303 4.43232 1.06866C3.04516 1.173 1.94824 2.33423 1.94824 3.74761Z" fill="#BA6102"/>
<path d="M5.58335 8.32469C5.27459 8.26037 4.95734 8.22681 4.63574 8.22681C2.07958 8.22681 0 10.3064 0 12.8626C0 13.3573 0.401093 13.7584 0.89583 13.7584H0.957045C1.64994 11.3559 3.35745 9.3795 5.58335 8.32469Z" fill="#BA6102"/>
<path d="M6.22403 1.58144C5.78872 2.19359 5.53162 2.94095 5.53162 3.74761C5.53162 4.55428 5.78872 5.30164 6.22403 5.91379C6.90385 6.8697 8.01957 7.49511 9.27923 7.49511C11.3457 7.49511 13.0268 5.814 13.0268 3.74756C13.0268 1.68111 11.3457 0 9.27923 0C8.01952 0.000119444 6.90385 0.625528 6.22403 1.58144Z" fill="#BA6102"/>
</svg>
