<svg width="24" height="24" viewBox="0 0 24 24" fill="none" xmlns="http://www.w3.org/2000/svg">
<g clip-path="url(#clip0_1_1566)">
<path d="M18.3627 2.70496V7.8937" stroke="#FAFAFA" stroke-opacity="0.4" stroke-width="1.43" stroke-linecap="round" stroke-linejoin="round"/>
<path d="M20.9571 5.29932H15.7683" stroke="#FAFAFA" stroke-opacity="0.4" stroke-width="1.43" stroke-linecap="round" stroke-linejoin="round"/>
<path d="M20.9571 12.7052L15.7683 12.7052" stroke="#FAFAFA" stroke-opacity="0.4" stroke-width="1.43" stroke-linecap="round" stroke-linejoin="round"/>
<path d="M3.04297 17.295L6.95281 20.5532C7.52787 21.0325 8.25275 21.2949 9.00133 21.2949H19.3092C20.0455 21.2949 20.6423 20.698 20.6423 19.9616C20.6423 18.489 19.4484 17.295 17.9758 17.295H10.8096" stroke="#FAFAFA" stroke-opacity="0.4" stroke-width="1.43" stroke-linecap="round" stroke-linejoin="round"/>
<path d="M7.8428 15.6952L9.04277 16.8952C9.70549 17.5578 10.78 17.5578 11.4427 16.8952C12.1054 16.2324 12.1054 15.1579 11.4427 14.4952L9.58001 12.6325C8.97991 12.0324 8.16601 11.6953 7.31735 11.6953H3.04297" stroke="#FAFAFA" stroke-opacity="0.4" stroke-width="1.43" stroke-linecap="round" stroke-linejoin="round"/>
</g>
<defs>
<clipPath id="clip0_1_1566">
<rect width="24" height="24" fill="white"/>
</clipPath>
</defs>
</svg>
