<svg width="24" height="24" viewBox="0 0 24 24" fill="none" xmlns="http://www.w3.org/2000/svg">
<path d="M21.4918 8.64129L18.5342 2.29872C18.4974 2.21989 18.4307 2.15889 18.349 2.12915C18.2672 2.09941 18.1769 2.10334 18.0981 2.1401L6.60544 7.49997C6.56638 7.51815 6.53128 7.54386 6.50216 7.57562C6.47304 7.60737 6.45047 7.64456 6.43573 7.68505C6.421 7.72554 6.4144 7.76854 6.4163 7.81158C6.4182 7.85463 6.42857 7.89688 6.44682 7.93591L7.6425 10.5L7.61457 10.5129C7.07559 10.7633 6.65243 11.2098 6.43144 11.7615L5.48363 14.117L2.29894 15.6015C2.25911 15.6192 2.22321 15.6446 2.19332 15.6764C2.16344 15.7081 2.14017 15.7454 2.12489 15.7863C2.1096 15.8271 2.1026 15.8705 2.1043 15.9141C2.10599 15.9576 2.11634 16.0004 2.13475 16.0399C2.15316 16.0794 2.17925 16.1149 2.21151 16.1442C2.24377 16.1735 2.28154 16.1961 2.32263 16.2106C2.36371 16.2252 2.40728 16.2314 2.4508 16.2289C2.49431 16.2265 2.5369 16.2153 2.57607 16.1962L3.76875 15.6409L6.2115 20.8811L5.38782 21.2651C5.34838 21.2831 5.31289 21.3087 5.2834 21.3404C5.2539 21.3722 5.23099 21.4094 5.21599 21.4501C5.20098 21.4908 5.19418 21.534 5.19597 21.5773C5.19777 21.6206 5.20812 21.6631 5.22643 21.7024C5.24475 21.7417 5.27066 21.7769 5.30267 21.8061C5.33469 21.8353 5.37217 21.8579 5.41296 21.8725C5.45375 21.8872 5.49703 21.8936 5.54031 21.8914C5.5836 21.8892 5.62602 21.8785 5.66513 21.8598L8.59838 20.4924C8.67724 20.4557 8.73827 20.3891 8.76805 20.3073C8.79783 20.2256 8.79393 20.1353 8.75719 20.0565L8.51044 19.527L9.02607 19.2868C9.07579 19.2635 9.11892 19.2282 9.1515 19.184L11.0213 16.6485C11.5332 15.9568 11.8175 15.1231 11.835 14.2627L11.8519 13.4988L21.3338 9.07741C21.3728 9.05923 21.408 9.03352 21.4371 9.00175C21.4662 8.96999 21.4888 8.93278 21.5036 8.89228C21.5183 8.85177 21.525 8.80875 21.5231 8.76569C21.5212 8.72262 21.5108 8.68035 21.4926 8.64129H21.4918ZM6.80625 20.6038L4.36275 15.3635L5.58038 14.796L8.02313 20.0362L6.80625 20.6038ZM10.4925 16.259L8.67225 18.7271L8.23238 18.9322L6.09713 14.351L7.04044 12.0058C7.19955 11.6088 7.50413 11.2874 7.89207 11.1073L7.91982 11.0942L9.40463 14.2777C9.43329 14.3393 9.48038 14.3905 9.5394 14.4242C9.59841 14.4579 9.66644 14.4724 9.73407 14.4658C9.80169 14.4591 9.86559 14.4316 9.91691 14.3871C9.96824 14.3426 10.0045 14.2832 10.0206 14.2172L10.6174 11.7832C10.641 11.6861 10.6863 11.5955 10.7497 11.5182C10.8132 11.4409 10.8932 11.3789 10.9839 11.3368L11.2448 11.2153L11.178 14.2483C11.1634 14.9734 10.9238 15.676 10.4925 16.259ZM9.58294 8.24997L11.6293 7.29579C11.6121 7.33666 11.5931 7.37641 11.5778 7.41841C11.3469 8.05272 11.3774 8.75275 11.6626 9.36456C11.9478 9.97637 12.4643 10.4499 13.0986 10.6809C13.1402 10.6961 13.1822 10.7077 13.2242 10.7205L11.8984 11.3392L11.9016 11.2003C11.9039 11.092 11.8786 10.9849 11.8281 10.8891C11.7775 10.7933 11.7034 10.7119 11.6127 10.6527C11.522 10.5935 11.4177 10.5583 11.3097 10.5506C11.2016 10.5429 11.0934 10.5628 10.9952 10.6085L10.7068 10.743C10.4689 10.8538 10.2696 11.0331 10.1344 11.258L9.20982 9.27485C9.35195 9.14823 9.46045 8.98832 9.52557 8.80944C9.59069 8.63057 9.6104 8.43834 9.58294 8.24997ZM18.3557 8.32779L16.3103 9.28122C16.3273 9.24072 16.3461 9.20135 16.3613 9.15991C16.4756 8.84582 16.527 8.51229 16.5124 8.17835C16.4979 7.84441 16.4177 7.5166 16.2764 7.21365C16.1352 6.9107 15.9357 6.63853 15.6893 6.41269C15.4428 6.18685 15.1543 6.01176 14.8403 5.89741C14.7981 5.88204 14.7551 5.87079 14.7126 5.85785L16.7588 4.9031C16.8855 5.04525 17.0455 5.15375 17.2245 5.2189C17.4034 5.28405 17.5957 5.30381 17.7842 5.27641L18.729 7.30235C18.5871 7.42913 18.4788 7.58908 18.4137 7.76791C18.3487 7.94674 18.329 8.1389 18.3563 8.32722L18.3557 8.32779ZM14.7563 10.0061C14.2966 10.2194 13.7712 10.2418 13.2951 10.0684C12.819 9.89508 12.4311 9.54008 12.2162 9.08121C12.0013 8.62234 11.9771 8.09702 12.1488 7.62032C12.3205 7.14363 12.6742 6.75443 13.1323 6.53799C13.5905 6.32155 14.1157 6.29552 14.593 6.4656C15.0703 6.63568 15.4607 6.988 15.6787 7.44538C15.8967 7.90276 15.9245 8.42791 15.7561 8.90578C15.5877 9.38364 15.2367 9.77527 14.7801 9.99485L14.7563 10.0061ZM11.8688 12.7674L11.8841 12.0699L15.0358 10.6001C15.0394 10.5986 15.0431 10.5975 15.0465 10.5958C15.0499 10.5941 15.054 10.5917 15.0579 10.5898L18.8888 8.80347C18.9676 8.76668 19.0287 8.70007 19.0584 8.61829C19.0882 8.53651 19.0843 8.44625 19.0476 8.36735C18.9926 8.24934 18.9868 8.11434 19.0313 7.99202C19.0759 7.8697 19.1672 7.77007 19.2851 7.71504C19.3242 7.69684 19.3593 7.67112 19.3884 7.63934C19.4175 7.60757 19.4401 7.57036 19.4548 7.52986C19.4696 7.48935 19.4762 7.44634 19.4743 7.40328C19.4724 7.36022 19.462 7.31796 19.4438 7.27891L18.2625 4.74466C18.2257 4.66579 18.1591 4.60476 18.0773 4.57498C17.9955 4.5452 17.9053 4.54911 17.8264 4.58585C17.768 4.61312 17.7048 4.6286 17.6403 4.63143C17.5759 4.63426 17.5116 4.62437 17.451 4.60232C17.3905 4.58028 17.3348 4.54651 17.2873 4.50296C17.2398 4.4594 17.2013 4.40691 17.1741 4.34847C17.1559 4.30943 17.1302 4.27435 17.0984 4.24524C17.0666 4.21614 17.0294 4.19357 16.989 4.17884C16.9485 4.16411 16.9055 4.1575 16.8625 4.15939C16.8194 4.16128 16.7772 4.17163 16.7381 4.18985L9.05119 7.77335C9.01212 7.79155 8.97702 7.81727 8.9479 7.84904C8.91878 7.88082 8.8962 7.91802 8.88147 7.95853C8.86674 7.99903 8.86014 8.04205 8.86204 8.08511C8.86394 8.12817 8.87432 8.17043 8.89257 8.20947C8.91983 8.26787 8.93531 8.33108 8.93814 8.39546C8.94096 8.45985 8.93107 8.52417 8.90902 8.58473C8.88698 8.64529 8.85321 8.70092 8.80966 8.74842C8.76611 8.79593 8.71362 8.83439 8.65519 8.8616C8.57632 8.8984 8.51528 8.96501 8.48551 9.04679C8.45573 9.12857 8.45964 9.21883 8.49638 9.29772L9.67763 11.832C9.6976 11.8746 9.72656 11.9124 9.76252 11.9427C9.79848 11.9731 9.84058 11.9953 9.88594 12.0078L9.60469 13.1555L8.376 10.5187L7.18069 7.9556L18.0786 2.87435L20.7598 8.62197L11.8688 12.7674Z" fill="#FAFAFA" fill-opacity="0.4"/>
</svg>
