<svg width="22" height="19" viewBox="0 0 22 19" fill="none" xmlns="http://www.w3.org/2000/svg">
<path d="M21.9896 9.91343C22.0247 10.7519 21.7258 11.57 21.1584 12.1883C20.5911 12.8066 19.8016 13.1747 18.9633 13.2117C18.9142 13.2139 18.8653 13.2151 18.8165 13.2151C18.5937 13.2149 18.3716 13.1908 18.154 13.1432C17.5084 14.14 16.6618 14.9912 15.6684 15.6421C14.675 16.2931 13.5566 16.7295 12.3849 16.9236C12.2463 17.3307 11.9698 17.6766 11.6032 17.9016C11.2366 18.1265 10.803 18.2162 10.3772 18.1553C9.95145 18.0944 9.56035 17.8867 9.27151 17.568C8.98268 17.2493 8.81426 16.8398 8.79537 16.4101C8.77648 15.9804 8.90831 15.5576 9.16807 15.2149C9.42783 14.8721 9.79919 14.6308 10.218 14.5328C10.6367 14.4347 11.0766 14.4861 11.4615 14.678C11.8464 14.8699 12.1522 15.1902 12.326 15.5836C13.9756 15.2785 15.4659 14.4043 16.5371 13.1131C17.6083 11.822 18.1924 10.196 18.1877 8.51837C18.1877 4.55503 14.9633 1.33065 11 1.33065C7.03666 1.33065 3.81228 4.55503 3.81228 8.51837C3.81206 9.7439 4.12527 10.9491 4.72213 12.0195C4.74236 12.0548 4.75754 12.0928 4.76724 12.1323C4.82489 12.2926 4.81873 12.4688 4.75003 12.6247C4.68133 12.7805 4.55535 12.9039 4.39816 12.9694C4.01327 13.1314 3.59989 13.2148 3.1823 13.2148C3.13316 13.2148 3.08391 13.2136 3.03456 13.2114C2.19655 13.1739 1.4076 12.8056 0.84069 12.1874C0.273784 11.5691 -0.0248073 10.7512 0.0103893 9.91311C0.0245386 9.5789 0.0166434 9.2807 0.00892562 8.99235C0.00174011 8.72085 -0.00575585 8.44009 0.00657483 8.14712C0.0433751 7.3288 0.395388 6.55645 0.988884 5.99185C1.58238 5.42725 2.37132 5.1142 3.19046 5.11825C4.50586 2.10868 7.51104 0 11 0C14.489 0 17.4942 2.10868 18.8096 5.1183C19.6288 5.11363 20.418 5.42641 21.0116 5.99102C21.6052 6.55564 21.9571 7.3282 21.9934 8.14663C22.0058 8.44004 21.9983 8.72076 21.991 8.99226C21.9834 9.28066 21.9755 9.57899 21.9896 9.91343ZM16.5801 8.51837C16.5798 9.37325 16.3831 10.2166 16.0053 10.9835C15.6274 11.7503 15.0785 12.4201 14.4009 12.9413C13.7232 13.4624 12.9349 13.821 12.0968 13.9893C11.2586 14.1576 10.393 14.1311 9.56671 13.9119L7.30811 15.2163C7.19415 15.2821 7.06323 15.3126 6.93192 15.304C6.8006 15.2954 6.67478 15.2481 6.57037 15.168C6.46597 15.0879 6.38766 14.9786 6.34537 14.854C6.30307 14.7294 6.29868 14.595 6.33275 14.4679L6.90998 12.3145C5.95405 11.2813 5.42216 9.926 5.42014 8.51837C5.42014 5.44067 7.92314 2.93701 11 2.93701C14.0769 2.93701 16.5801 5.44067 16.5801 8.51837ZM9.44869 8.51837C9.44869 8.34192 9.37859 8.17269 9.25382 8.04792C9.12904 7.92315 8.95982 7.85305 8.78336 7.85305H8.78225C8.65072 7.85329 8.52221 7.89252 8.41296 7.96578C8.30371 8.03903 8.21863 8.14303 8.16846 8.26462C8.11829 8.38622 8.10529 8.51995 8.13111 8.64893C8.15692 8.77791 8.22038 8.89634 8.31348 8.98927C8.40657 9.08219 8.52513 9.14543 8.65415 9.171C8.78318 9.19657 8.91689 9.18333 9.03839 9.13293C9.15989 9.08254 9.26372 8.99726 9.33678 8.88788C9.40983 8.77849 9.44882 8.64991 9.44882 8.51837H9.44869ZM11.6655 8.51837C11.6654 8.49659 11.6642 8.47483 11.6619 8.45317C11.6598 8.43143 11.6566 8.40981 11.6522 8.38841C11.6482 8.36709 11.6429 8.34606 11.6362 8.32543C11.63 8.30458 11.6225 8.28418 11.6145 8.26377C11.6065 8.24337 11.5968 8.2243 11.5866 8.20523C11.5764 8.18605 11.5653 8.16739 11.5533 8.14934C11.5412 8.1311 11.5281 8.11348 11.5142 8.09656C11.5005 8.0796 11.4859 8.06346 11.4703 8.04821C11.4553 8.03269 11.4388 8.01805 11.422 8.00385C11.4051 7.99055 11.3874 7.97724 11.3692 7.96527C11.3511 7.95324 11.3325 7.94213 11.3133 7.932C11.2942 7.9218 11.2743 7.91248 11.2543 7.90406C11.2343 7.89569 11.2139 7.88844 11.1931 7.88232C11.1516 7.869 11.1088 7.86037 11.0654 7.8566C11.0002 7.85032 10.9345 7.85346 10.8702 7.86591C10.8488 7.87028 10.8277 7.87576 10.8068 7.88232C10.786 7.88842 10.7656 7.89568 10.7456 7.90406C10.7257 7.91248 10.7057 7.9218 10.6866 7.932C10.6676 7.9422 10.6489 7.95329 10.6307 7.96527C10.6125 7.97724 10.5948 7.99055 10.5784 8.00385C10.5611 8.01805 10.5451 8.03269 10.5296 8.04821C10.514 8.06347 10.4994 8.07961 10.4857 8.09656C10.4719 8.11349 10.4591 8.1311 10.4471 8.14934C10.4349 8.16738 10.4237 8.18603 10.4134 8.20523C10.4032 8.22423 10.394 8.24377 10.3859 8.26377C10.3774 8.28394 10.37 8.30452 10.3637 8.32543C10.3575 8.34583 10.3522 8.36712 10.3478 8.38841C10.3434 8.40981 10.3401 8.43143 10.338 8.45317C10.3358 8.47491 10.3349 8.49664 10.3349 8.51837C10.3349 8.54011 10.3358 8.56228 10.338 8.58402C10.3401 8.60561 10.3434 8.62707 10.3478 8.64833C10.3522 8.66962 10.3575 8.69091 10.3637 8.71176C10.37 8.73252 10.3774 8.75295 10.3859 8.77297C10.394 8.79312 10.4032 8.81281 10.4134 8.83196C10.4236 8.85104 10.4351 8.86966 10.4471 8.88785C10.4591 8.90594 10.4719 8.92341 10.4857 8.94019C10.4995 8.95718 10.5142 8.97347 10.5296 8.98898C10.5451 9.00406 10.5611 9.01914 10.5784 9.03289C10.5951 9.04674 10.6125 9.05963 10.6307 9.07148C10.6489 9.08346 10.6675 9.09499 10.6866 9.10519C10.7252 9.12527 10.7654 9.14189 10.8068 9.15487C10.8276 9.16108 10.8489 9.1664 10.8702 9.17084C10.913 9.17959 10.9565 9.1839 11.0002 9.1837C11.1764 9.18323 11.3454 9.11326 11.4703 8.98898C11.501 8.95786 11.5288 8.92401 11.5533 8.88785C11.5653 8.86966 11.5763 8.85104 11.5866 8.83196C11.5968 8.81289 11.6061 8.79293 11.6145 8.77297C11.6229 8.75301 11.63 8.73216 11.6362 8.71176C11.6428 8.69097 11.6482 8.66978 11.6522 8.64833C11.6565 8.62708 11.6598 8.60561 11.6619 8.58402C11.6642 8.56218 11.6653 8.54024 11.6653 8.51828L11.6655 8.51837ZM13.8832 8.51837C13.8832 8.34192 13.8131 8.17269 13.6883 8.04792C13.5636 7.92315 13.3943 7.85305 13.2179 7.85305H13.2166C13.0851 7.8533 12.9566 7.89254 12.8473 7.9658C12.7381 8.03906 12.653 8.14306 12.6028 8.26465C12.5527 8.38625 12.5397 8.51998 12.5655 8.64896C12.5913 8.77793 12.6548 8.89636 12.7479 8.98928C12.841 9.0822 12.9595 9.14544 13.0886 9.17101C13.2176 9.19657 13.3513 9.18332 13.4728 9.13293C13.5943 9.08253 13.6981 8.99726 13.7712 8.88787C13.8442 8.77849 13.8832 8.64991 13.8832 8.51837Z" fill="#BA6102"/>
</svg>
