<svg width="30" height="31" viewBox="0 0 30 31" fill="none" xmlns="http://www.w3.org/2000/svg">
<path d="M27.6866 1H2.2066C1.20144 1 0.386597 1.81484 0.386597 2.82V28.3C0.386597 29.3052 1.20144 30.12 2.2066 30.12H27.6866C28.6918 30.12 29.5066 29.3052 29.5066 28.3V2.82C29.5066 1.81484 28.6918 1 27.6866 1ZM4.0266 27.6933C3.35649 27.6933 2.81326 27.1501 2.81326 26.48C2.81326 25.8099 3.35649 25.2667 4.0266 25.2667C4.6967 25.2667 5.23993 25.8099 5.23993 26.48C5.23993 27.1501 4.6967 27.6933 4.0266 27.6933ZM4.0266 5.85333C3.35649 5.85333 2.81326 5.31011 2.81326 4.64C2.81326 3.96989 3.35649 3.42667 4.0266 3.42667C4.6967 3.42667 5.23993 3.96989 5.23993 4.64C5.23993 5.31011 4.6967 5.85333 4.0266 5.85333ZM14.9466 27.0867C13.9414 27.0867 13.1266 26.2718 13.1266 25.2667C13.1266 24.2615 13.9414 23.4467 14.9466 23.4467C15.9518 23.4467 16.7666 24.2615 16.7666 25.2667C16.7666 26.2718 15.9518 27.0867 14.9466 27.0867ZM16.7666 18.3507V20.4133C16.7666 20.7484 16.495 21.02 16.1599 21.02H13.7333C13.3982 21.02 13.1266 20.7484 13.1266 20.4133V16.1667C13.1266 15.4966 13.6698 14.9533 14.3399 14.9533H14.9466C15.895 14.9539 16.7891 14.5108 17.3631 13.7558C17.9371 13.0008 18.1249 12.0208 17.8707 11.1071C17.6017 10.0727 16.7939 9.26493 15.7595 8.99587C14.9297 8.7677 14.042 8.90132 13.3161 9.36369C12.5901 9.82607 12.0937 10.574 11.9497 11.4225C11.8999 11.7319 11.6186 11.9496 11.3066 11.92H8.87993C8.71474 11.9201 8.55664 11.8529 8.44214 11.7338C8.32764 11.6147 8.26666 11.4541 8.27326 11.2891C8.60077 7.94439 11.3643 5.36509 14.7236 5.26881C18.0829 5.17252 20.9897 7.5893 21.5082 10.9097C22.0268 14.2302 19.9953 17.4181 16.7666 18.3507ZM25.8666 27.6933C25.1965 27.6933 24.6533 27.1501 24.6533 26.48C24.6533 25.8099 25.1965 25.2667 25.8666 25.2667C26.5367 25.2667 27.0799 25.8099 27.0799 26.48C27.0799 27.1501 26.5367 27.6933 25.8666 27.6933ZM25.8666 5.85333C25.1965 5.85333 24.6533 5.31011 24.6533 4.64C24.6533 3.96989 25.1965 3.42667 25.8666 3.42667C26.5367 3.42667 27.0799 3.96989 27.0799 4.64C27.0799 5.31011 26.5367 5.85333 25.8666 5.85333Z" fill="white"/>
</svg>
