<svg width="18" height="17" viewBox="0 0 18 17" fill="none" xmlns="http://www.w3.org/2000/svg">
<path d="M11.2562 0.263611C11.1303 0.137747 10.97 0.0520296 10.7954 0.0172988C10.6209 -0.017432 10.4399 0.000383557 10.2755 0.0684927C10.111 0.136602 9.97046 0.251945 9.87157 0.399937C9.77268 0.547929 9.71989 0.721922 9.71989 0.899913V4.04992C7.13481 4.07675 4.66454 5.12169 2.84493 6.95808C1.02531 8.79448 0.0030897 11.2742 0 13.8595V15.4793C9.02069e-05 15.6724 0.062298 15.8605 0.177436 16.0156C0.292574 16.1707 0.454538 16.2846 0.639407 16.3406C0.723863 16.3664 0.811696 16.3794 0.900003 16.3793C1.04816 16.3793 1.19401 16.3427 1.32463 16.2727C1.45525 16.2028 1.5666 16.1018 1.64881 15.9785C5.08667 10.8219 8.38345 10.4537 9.71983 10.5609V13.8594C9.71983 14.0374 9.77262 14.2114 9.87151 14.3594C9.9704 14.5074 10.111 14.6227 10.2754 14.6908C10.4398 14.759 10.6208 14.7768 10.7954 14.742C10.9699 14.7073 11.1303 14.6216 11.2561 14.4957L17.7363 8.01553C17.8199 7.93198 17.8862 7.83278 17.9315 7.72359C17.9767 7.61441 18 7.49738 18 7.3792C18 7.26101 17.9767 7.14398 17.9315 7.0348C17.8862 6.92562 17.8199 6.82642 17.7363 6.74287L11.2562 0.263611Z" fill="#BA6102"/>
</svg>
