<svg width="16" height="18" viewBox="0 0 16 18" fill="none" xmlns="http://www.w3.org/2000/svg">
<path d="M14.828 2.81762C12.5217 2.62634 10.221 1.71507 8.00467 0.10627C7.80214 -0.0399907 7.52651 -0.03436 7.32964 0.117497C5.37208 1.60819 3.07137 2.51946 0.49502 2.81762C0.21376 2.85137 0 3.08761 0 3.3745V6.98024C0 11.8573 2.93074 16.1662 7.46464 17.9606C7.53214 17.9887 7.59964 18 7.67277 18C7.74027 18 7.8134 17.9887 7.8809 17.9606C12.4148 16.1662 15.3455 11.8573 15.3455 6.98024V3.3745C15.3455 3.08198 15.1205 2.8401 14.828 2.81762ZM8.7472 9.40469L9.19721 11.0529C9.32658 11.5085 8.98345 11.9586 8.50529 11.9586H6.83462C6.36209 11.9586 6.01896 11.5085 6.14273 11.0529L6.59837 9.40469C6.64335 9.24158 6.59274 9.06719 6.4746 8.94342C6.08083 8.56091 5.87833 7.97591 6.01333 7.35711C6.14833 6.73836 6.64898 6.22648 7.27337 6.08585C8.38155 5.83271 9.37159 6.67649 9.37159 7.73966C9.37159 8.21215 9.18032 8.63968 8.87094 8.94342C8.7472 9.06719 8.70219 9.24158 8.7472 9.40469Z" fill="#BA6102"/>
</svg>
