<svg width="46" height="46" viewBox="0 0 46 46" fill="none" xmlns="http://www.w3.org/2000/svg">
<g clip-path="url(#clip0_1_385)">
<path d="M22.91 3.91003C12.46 3.91003 3.90997 12.46 3.90997 22.91C3.90997 33.36 12.46 41.91 22.91 41.91C33.36 41.91 41.91 33.36 41.91 22.91C41.91 12.46 33.36 3.91003 22.91 3.91003ZM22.91 7.0767C31.6183 7.0767 38.7433 14.2017 38.7433 22.91C38.7433 31.6184 31.6183 38.7434 22.91 38.7434C14.2016 38.7434 7.07664 31.6184 7.07664 22.91C7.07664 14.2017 14.2016 7.0767 22.91 7.0767ZM22.5945 10.2434V13.0946C20.8529 13.2529 19.5837 13.8857 18.4754 14.8357C17.3671 15.944 16.8921 17.0529 16.8921 18.6363C16.8921 20.2196 17.3677 21.4838 18.3177 22.4338C19.2677 23.2255 20.8516 24.0171 22.91 24.8088C23.86 25.1255 24.4921 25.6023 24.8087 25.919C25.1254 26.2357 25.285 26.869 25.285 27.5023C25.285 28.1357 25.1254 28.6113 24.8087 28.9279C24.4921 29.2446 24.0171 29.4011 23.2254 29.4011C22.2754 29.4011 21.6439 29.2421 21.1689 28.7671C20.6939 28.2921 20.3773 27.5029 20.3773 26.5529H15.9427V26.7107C15.9427 28.769 16.5754 30.1921 17.6837 31.1421C18.7921 32.0921 20.3766 32.7279 22.1183 32.8863V35.5767H24.1779V33.044C25.9195 32.8857 27.3439 32.4107 28.2939 31.4607C29.2439 30.5107 29.7195 29.2434 29.7195 27.66C29.7195 25.9184 29.0862 24.6517 28.1362 23.7017C27.1862 22.7517 25.6023 21.96 23.5439 21.3267C22.5939 20.8517 21.9587 20.3755 21.6421 20.0588C21.3254 19.7421 21.1689 19.2696 21.1689 18.6363C21.1689 18.0029 21.3254 17.5279 21.6421 17.0529C21.9587 16.5779 22.4337 16.419 23.2254 16.419C23.8587 16.419 24.3337 16.7363 24.8087 17.0529C25.2837 17.3696 25.4427 18.0017 25.4427 18.9517H29.8773C29.8773 17.3684 29.4016 16.1017 28.4516 14.9934C27.5016 13.885 26.0766 13.2529 24.4933 13.0946V10.2434H22.5945Z" fill="#BA6102"/>
</g>
<defs>
<clipPath id="clip0_1_385">
<rect width="46" height="46" fill="white"/>
</clipPath>
</defs>
</svg>
