<svg width="31" height="23" viewBox="0 0 31 23" fill="none" xmlns="http://www.w3.org/2000/svg">
<path d="M19.4225 0.522217C17.4232 0.522189 15.4634 1.0789 13.7626 2.12998C12.0619 3.18106 10.6875 4.68497 9.79337 6.47319V6.47319C9.04699 7.95098 8.65775 9.58327 8.65694 11.2389C8.66121 11.4906 8.57055 11.7347 8.40299 11.9227C8.23544 12.1106 8.00327 12.2286 7.75269 12.2531C7.61828 12.2632 7.48324 12.2454 7.35604 12.2008C7.22884 12.1562 7.11223 12.0858 7.01354 11.994C6.91485 11.9022 6.83621 11.791 6.78256 11.6674C6.72892 11.5437 6.70142 11.4103 6.7018 11.2755C6.70229 9.90949 6.92093 8.55232 7.34944 7.25525C7.37804 7.17254 7.38391 7.08367 7.36643 6.99792C7.34896 6.91217 7.30879 6.83269 7.25011 6.76777C7.19143 6.70285 7.11639 6.65487 7.03284 6.62884C6.94929 6.60282 6.86028 6.59971 6.77512 6.61982C5.08009 7.04004 3.57448 8.01549 2.4982 9.39073C1.42192 10.766 0.836899 12.4619 0.836365 14.2082C0.836365 18.5095 4.47782 22.0288 8.76692 22.0288H19.4102C22.2622 22.0304 24.998 20.8991 27.0158 18.8836C29.0335 16.8681 30.168 14.1336 30.1696 11.2816C30.1713 8.42967 29.0399 5.69388 27.0244 3.6761C25.0089 1.65832 22.2744 0.523837 19.4225 0.522217V0.522217ZM23.2717 14.1594C23.084 14.3387 22.8347 14.4393 22.5751 14.4404C22.319 14.44 22.0733 14.3391 21.8908 14.1594L19.4102 11.6788V19.0961C19.4102 19.3554 19.3072 19.604 19.1239 19.7873C18.9406 19.9707 18.6919 20.0737 18.4327 20.0737C18.1734 20.0737 17.9247 19.9707 17.7414 19.7873C17.5581 19.604 17.4551 19.3554 17.4551 19.0961V11.6788L14.9745 14.1594C14.7885 14.3278 14.5449 14.4184 14.2941 14.4122C14.0432 14.406 13.8043 14.3036 13.6269 14.1262C13.4494 13.9487 13.347 13.7098 13.3408 13.459C13.3347 13.2081 13.4252 12.9645 13.5937 12.7785L17.7361 8.62385C17.9215 8.44028 18.1718 8.3373 18.4327 8.3373C18.6935 8.3373 18.9438 8.44028 19.1292 8.62385L23.2717 12.7785C23.4545 12.9618 23.5571 13.2101 23.5571 13.4689C23.5571 13.7278 23.4545 13.9761 23.2717 14.1594Z" fill="#BA6102"/>
</svg>
