<svg width="26" height="23" viewBox="0 0 26 23" fill="none" xmlns="http://www.w3.org/2000/svg">
<path d="M23.2533 4.43251H3.70182C3.44255 4.43251 3.1939 4.32951 3.01057 4.14618C2.82724 3.96285 2.72425 3.7142 2.72425 3.45493C2.72425 3.19567 2.82724 2.94702 3.01057 2.76369C3.1939 2.58036 3.44255 2.47736 3.70182 2.47736H20.3206C20.5798 2.47736 20.8285 2.37437 21.0118 2.19104C21.1951 2.00771 21.2981 1.75906 21.2981 1.49979C21.2981 1.24052 21.1951 0.991872 21.0118 0.808541C20.8285 0.625211 20.5798 0.522217 20.3206 0.522217H3.70182C2.92501 0.525433 2.18093 0.835448 1.63163 1.38474C1.08234 1.93404 0.772321 2.67812 0.769104 3.45493V19.0961C0.772321 19.8729 1.08234 20.617 1.63163 21.1663C2.18093 21.7156 2.92501 22.0256 3.70182 22.0288H23.2533C23.7718 22.0288 24.2691 21.8228 24.6358 21.4562C25.0024 21.0895 25.2084 20.5922 25.2084 20.0737V6.38765C25.2084 5.86911 25.0024 5.37182 24.6358 5.00516C24.2691 4.63849 23.7718 4.43251 23.2533 4.43251ZM18.8542 14.697C18.5642 14.697 18.2807 14.611 18.0395 14.4499C17.7984 14.2888 17.6104 14.0597 17.4995 13.7918C17.3885 13.5239 17.3594 13.229 17.416 12.9446C17.4726 12.6601 17.6122 12.3989 17.8173 12.1938C18.0224 11.9887 18.2837 11.8491 18.5681 11.7925C18.8526 11.7359 19.1474 11.7649 19.4153 11.8759C19.6833 11.9869 19.9123 12.1749 20.0734 12.416C20.2346 12.6571 20.3206 12.9406 20.3206 13.2307C20.3206 13.6196 20.1661 13.9925 19.8911 14.2675C19.6161 14.5425 19.2431 14.697 18.8542 14.697Z" fill="#BA6102"/>
</svg>
