<svg width="61" height="55" viewBox="0 0 61 55" fill="none" xmlns="http://www.w3.org/2000/svg">
<path d="M2.4605 17.2634C1.10288 17.2634 0 18.3574 0 19.7079H1.44151C1.44151 19.1485 1.89819 18.6973 2.4605 18.6973H5.36527L4.61655 17.2634H2.4605Z" fill="#121110"/>
<path d="M0 19.708C0 21.0585 1.10288 22.1555 2.4605 22.1555H40.3529C43.6708 22.1555 46.3613 24.8317 46.3613 28.1322V26.6983C46.3613 23.3978 43.6708 20.7216 40.3529 20.7216H2.4605C1.89819 20.7216 1.44151 20.2674 1.44151 19.708H0Z" fill="#121110"/>
<path d="M47.3306 44.6528V48.6392C47.3306 49.2728 47.2342 49.8815 47.0758 50.4687C48.5297 49.3747 49.468 47.6503 49.468 45.7035V44.6497C49.4431 44.6527 47.3306 44.6528 47.3306 44.6528Z" fill="#121110"/>
<path d="M56.2002 21.6394L48.3775 33.2342H49.3779L53.5191 29.189L58.6793 24.1456L56.2002 21.6394Z" fill="#121110"/>
<path d="M49.3033 15.9811C50.5895 14.0806 50.8504 12.0194 49.8967 11.3797C48.9429 10.7431 47.1255 11.7629 45.8425 13.6665C44.5594 15.5701 44.2953 17.6283 45.2491 18.268C46.2059 18.9076 48.0234 17.8848 49.3033 15.9811ZM61 12.8074L44.3699 1.69775L40.1417 7.9618L40.2939 11.5805L42.0305 9.00323C44.5407 9.79744 47.2995 9.25972 49.3188 7.5786L53.662 10.4773C52.8636 12.9743 53.4042 15.7185 55.0942 17.7272L47.3306 29.2324C47.3337 29.2509 47.3337 33.0643 47.3337 33.0643L61 12.8074ZM47.3306 26.9486C47.7997 24.6618 46.5104 21.9083 43.9474 20.1994C42.8724 19.4824 41.7199 19.0467 40.5921 18.8706L40.6294 19.7729C44.3512 19.9244 47.3306 22.9683 47.3306 26.7014V26.9486Z" fill="#EC661F"/>
<path d="M25.071 8.03897L24.8629 2.97396L26.438 2.91216L26.6461 7.97098L25.071 8.03897ZM38.8368 0.0505371L23.9526 0.656236L24.2819 8.66012L24.5988 9.26891L29.7497 9.05877C31.241 7.97098 33.2883 7.2324 35.5841 7.05007L35.3573 1.54624L38.0073 1.43808L38.2466 7.28494L38.7592 19.7512H39.6477L38.8368 0.0505371ZM36.0159 13.1874C36.0159 11.2683 34.4533 9.71082 32.5209 9.71082C30.5948 9.71082 29.029 11.2652 29.029 13.1874C29.029 15.1065 30.5917 16.664 32.5209 16.664C34.4502 16.6609 36.0159 15.1065 36.0159 13.1874ZM25.8011 11.5805L27.4818 14.8006C27.3389 14.3957 27.252 13.9785 27.2364 13.5428C27.2085 12.8351 27.3638 12.1522 27.662 11.5094L25.8011 11.5805ZM28.0783 15.9409L30.0697 19.7574H36.5348L36.5192 19.3217C32.7974 19.4545 29.554 18.0546 28.0783 15.9409Z" fill="#121110"/>
<path d="M5.1571 11.0087C3.97656 11.6175 3.51366 13.0638 4.12878 14.2381L7.00248 19.7573H10.2334C10.1371 19.7326 10.0502 19.7048 9.96006 19.6708C10.5659 19.3989 11.0971 19.1516 11.4295 18.994C11.6315 18.8952 11.7526 18.6727 11.7216 18.4502C11.6066 17.6065 11.327 16.8679 11.3301 16.2962L10.4478 17.143L8.27933 17.4489L8.18302 17.2635C8.41913 17.0101 8.70495 16.6979 8.93485 16.4229C9.07465 16.4847 9.45366 16.5867 9.63075 16.6516C9.67735 16.562 10.2024 15.8327 10.3049 15.6627C10.1061 15.6442 9.20513 15.6503 9.10571 15.638C9.0529 15.8234 8.91931 16.188 8.88825 16.3395C8.53408 16.3704 8.11157 16.4229 7.76983 16.4693L7.67042 16.2808L9.17095 14.6985L10.3764 14.4606C9.93831 14.1515 9.43813 13.4593 8.79504 12.8783C8.64903 12.7424 8.42845 12.7145 8.25448 12.8103C7.93138 12.9834 7.40635 13.2863 6.81297 13.6324C6.93103 13.1256 7.24791 12.6713 7.74809 12.4086L11.6843 10.3783C12.5945 9.90855 13.7223 10.2639 14.1914 11.1694L16.2356 15.0848C16.7047 15.9903 16.3505 17.112 15.4403 17.5818L11.5041 19.6121C11.3736 19.6801 11.2369 19.7234 11.0971 19.7543H19.9885L13.2532 6.83061L5.1571 11.0087ZM11.3301 16.2993C11.4171 16.117 11.5383 15.9995 11.6656 15.8945C12.2652 16.0799 13.0699 16.1046 13.6788 15.7925C14.6822 15.2733 14.9215 14.3153 14.4958 13.5057C14.0702 12.696 13.1475 12.3344 12.1441 12.8536C11.5352 13.1657 11.094 13.8301 10.9014 14.4297C10.7367 14.4729 10.5752 14.5007 10.4105 14.4915C10.3732 14.4637 10.3018 15.6658 10.3018 15.6658L11.3301 16.2993ZM21.4424 5.304C20.8521 4.17295 19.4852 3.71559 18.3264 4.23167L26.4256 19.7573H28.9762L21.4424 5.304Z" fill="#EC661F"/>
<path d="M14.0703 6.31471L21.0821 19.7575H25.3351L17.4255 4.58105L14.0703 6.31471Z" fill="#121110"/>
<path d="M48.4365 35.6045H47.3057C47.1876 35.6045 47.0913 35.5087 47.0913 35.3913C47.0913 35.2738 47.1876 35.1811 47.3057 35.1811H48.4365C48.5515 35.1811 48.6478 35.2707 48.6478 35.3913C48.6478 35.5118 48.5515 35.6045 48.4365 35.6045ZM47.7779 42.7029H46.6471C46.529 42.7029 46.4327 42.6133 46.4327 42.4928C46.4327 42.3753 46.529 42.2795 46.6471 42.2795H47.7779C47.896 42.2795 47.9923 42.3753 47.9923 42.4928C47.9954 42.6133 47.8991 42.7029 47.7779 42.7029ZM45.889 35.6045H44.7582C44.6401 35.6045 44.5438 35.5087 44.5438 35.3913C44.5438 35.2738 44.6401 35.1811 44.7582 35.1811H45.889C46.0071 35.1811 46.1003 35.2707 46.1003 35.3913C46.1003 35.5118 46.0071 35.6045 45.889 35.6045ZM45.2335 42.7029H44.1027C43.9846 42.7029 43.8883 42.6133 43.8883 42.4928C43.8883 42.3753 43.9846 42.2795 44.1027 42.2795H45.2335C45.3516 42.2795 45.4479 42.3753 45.4479 42.4928C45.4479 42.6133 45.3516 42.7029 45.2335 42.7029ZM43.3415 35.6045H42.2107C42.0927 35.6045 41.9964 35.5087 41.9964 35.3913C41.9964 35.2738 42.0927 35.1811 42.2107 35.1811H43.3415C43.4596 35.1811 43.5559 35.2707 43.5559 35.3913C43.5559 35.5118 43.4596 35.6045 43.3415 35.6045ZM42.686 42.7029H41.5552C41.4371 42.7029 41.3439 42.6133 41.3439 42.4928C41.3439 42.3753 41.434 42.2795 41.5552 42.2795H42.686C42.8041 42.2795 42.9004 42.3753 42.9004 42.4928C42.9004 42.6133 42.8041 42.7029 42.686 42.7029ZM40.7972 35.6045H39.6632C39.5483 35.6045 39.452 35.5087 39.452 35.3913C39.452 35.2738 39.5483 35.1811 39.6632 35.1811H40.7972C40.9121 35.1811 41.0084 35.2707 41.0084 35.3913C41.0084 35.5118 40.9152 35.6045 40.7972 35.6045ZM38.5324 41.0527C37.3332 41.0527 36.3639 40.0854 36.3639 38.8926C36.3639 37.6997 37.3363 36.7355 38.5324 36.7355C39.7285 36.7355 40.704 37.7028 40.704 38.8926C40.7071 40.0885 39.7316 41.0527 38.5324 41.0527ZM40.1385 42.7029H39.0077C38.8928 42.7029 38.7965 42.6133 38.7965 42.4928C38.7965 42.3753 38.8928 42.2795 39.0077 42.2795H40.1385C40.2566 42.2795 40.3529 42.3753 40.3529 42.4928C40.3529 42.6133 40.2566 42.7029 40.1385 42.7029ZM37.5942 42.7029H37.24C36.9573 42.7029 36.6777 42.6597 36.4074 42.5731C36.2956 42.536 36.2365 42.4186 36.2707 42.3074C36.3049 42.1961 36.426 42.1374 36.5379 42.1714C36.7647 42.2425 37.0008 42.2795 37.2369 42.2795H37.5911C37.706 42.2795 37.8023 42.3753 37.8023 42.4928C37.8054 42.6133 37.7091 42.7029 37.5942 42.7029ZM35.9259 36.0248C35.6432 36.2256 35.4133 36.4914 35.2517 36.7943C35.2113 36.8653 35.1399 36.9086 35.0622 36.9086C35.0311 36.9086 34.9939 36.8993 34.9628 36.8808C34.8603 36.8283 34.8199 36.6985 34.8758 36.5965C35.0653 36.2349 35.3449 35.9228 35.6804 35.6848C35.7767 35.6138 35.9072 35.6385 35.9756 35.7312C36.0408 35.827 36.0222 35.9568 35.9259 36.0248ZM35.4599 41.7511C35.4195 41.782 35.3729 41.7975 35.3232 41.7975C35.261 41.7975 35.1989 41.7696 35.1585 41.7171C34.9006 41.4019 34.7142 41.0218 34.6242 40.6293C34.5993 40.515 34.6708 40.4006 34.7826 40.3759C34.9007 40.3481 35.0125 40.4223 35.0373 40.5397C35.1119 40.8673 35.2672 41.1887 35.4816 41.4544C35.5655 41.5441 35.5531 41.68 35.4599 41.7511ZM34.562 39.18V38.052C34.562 37.9377 34.6583 37.8419 34.7764 37.8419C34.8913 37.8419 34.9876 37.9377 34.9876 38.052V39.18C34.9876 39.2943 34.8913 39.3901 34.7764 39.3901C34.6583 39.3901 34.562 39.2943 34.562 39.18ZM37.1095 35.1873C37.153 35.1842 37.1965 35.1842 37.24 35.1842H38.2497C38.3646 35.1842 38.4609 35.2738 38.4609 35.3943C38.4609 35.5118 38.3646 35.6076 38.2497 35.6076H37.24C37.2027 35.6076 37.1654 35.6076 37.1282 35.6076C37.0039 35.6076 36.9138 35.5211 36.9045 35.4098C36.9014 35.2893 36.9884 35.1904 37.1095 35.1873ZM49.8532 35.1811H50.3254C50.3813 34.6156 49.9588 34.1953 49.4431 34.1953H37.24C35.2144 34.1953 33.571 35.827 33.571 37.845V40.0391C33.571 42.057 35.2144 43.6887 37.24 43.6887H49.4431C49.9619 43.6887 50.3813 43.2684 50.3813 42.7555C50.3254 42.7029 49.1915 42.7029 49.1915 42.7029C49.0765 42.7029 48.9802 42.6133 48.9802 42.4928C48.9802 42.3753 49.0765 42.2795 49.1915 42.2795H50.3254C50.3813 42.3043 50.3813 35.5767 50.3813 35.5767C50.3254 35.6045 49.8532 35.6045 49.8532 35.6045C49.7351 35.6045 49.6388 35.5087 49.6388 35.3913C49.6388 35.2738 49.732 35.1811 49.8532 35.1811Z" fill="#EC661F"/>
<path d="M32.5986 25.5393C32.4681 25.5393 32.3594 25.4373 32.3594 25.3013C32.3594 25.1715 32.4681 25.0634 32.5986 25.0634H33.5492C33.6859 25.0634 33.7915 25.1715 33.7915 25.3013C33.7915 25.4373 33.6828 25.5393 33.5492 25.5393H32.5986ZM32.6762 52.5856C32.6762 52.7154 32.5675 52.8267 32.437 52.8267H31.4864C31.3497 52.8267 31.2441 52.7154 31.2441 52.5856C31.2441 52.4496 31.3528 52.3477 31.4864 52.3477H32.437C32.5675 52.3477 32.6762 52.4496 32.6762 52.5856ZM33.8661 52.3477H34.8199C34.9504 52.3477 35.0591 52.4496 35.0591 52.5856C35.0591 52.7154 34.9504 52.8267 34.8199 52.8267H33.8661C33.7356 52.8267 33.6269 52.7154 33.6269 52.5856C33.6269 52.4496 33.7325 52.3477 33.8661 52.3477ZM36.2458 52.3477H37.1996C37.3301 52.3477 37.4388 52.4496 37.4388 52.5856C37.4388 52.7154 37.3301 52.8267 37.1996 52.8267H36.2458C36.1154 52.8267 36.0066 52.7154 36.0066 52.5856C36.0066 52.4496 36.1154 52.3477 36.2458 52.3477ZM38.6287 52.3477H39.5793C39.716 52.3477 39.8185 52.4496 39.8185 52.5856C39.8185 52.7154 39.716 52.8267 39.5793 52.8267H38.6287C38.492 52.8267 38.3864 52.7154 38.3864 52.5856C38.3864 52.4496 38.4951 52.3477 38.6287 52.3477ZM30.2188 25.5393C30.0884 25.5393 29.9765 25.4373 29.9765 25.3013C29.9765 25.1715 30.0884 25.0634 30.2188 25.0634H31.1695C31.3062 25.0634 31.4118 25.1715 31.4118 25.3013C31.4118 25.4373 31.3031 25.5393 31.1695 25.5393H30.2188ZM30.0511 52.8267H29.1004C28.97 52.8267 28.8612 52.7154 28.8612 52.5856C28.8612 52.4496 28.97 52.3477 29.1004 52.3477H30.0511C30.1878 52.3477 30.2934 52.4496 30.2934 52.5856C30.2965 52.7154 30.1878 52.8267 30.0511 52.8267ZM27.8391 25.5393C27.7024 25.5393 27.5968 25.4373 27.5968 25.3013C27.5968 25.1715 27.7055 25.0634 27.8391 25.0634H28.7898C28.9202 25.0634 29.029 25.1715 29.029 25.3013C29.029 25.4373 28.9202 25.5393 28.7898 25.5393H27.8391ZM27.6714 52.8267H26.7207C26.5902 52.8267 26.4784 52.7154 26.4784 52.5856C26.4784 52.4496 26.5902 52.3477 26.7207 52.3477H27.6714C27.8081 52.3477 27.9137 52.4496 27.9137 52.5856C27.9168 52.7154 27.8081 52.8267 27.6714 52.8267ZM25.4563 25.5393C25.3258 25.5393 25.2171 25.4373 25.2171 25.3013C25.2171 25.1715 25.3258 25.0634 25.4563 25.0634H26.41C26.5405 25.0634 26.6493 25.1715 26.6493 25.3013C26.6493 25.4373 26.5405 25.5393 26.41 25.5393H25.4563ZM25.2916 52.8267H24.341C24.2043 52.8267 24.0987 52.7154 24.0987 52.5856C24.0987 52.4496 24.2074 52.3477 24.341 52.3477H25.2916C25.4221 52.3477 25.5308 52.4496 25.5308 52.5856C25.5308 52.7154 25.4252 52.8267 25.2916 52.8267ZM23.0765 25.5393C22.9399 25.5393 22.8342 25.4373 22.8342 25.3013C22.8342 25.1715 22.943 25.0634 23.0765 25.0634H24.0272C24.1639 25.0634 24.2664 25.1715 24.2664 25.3013C24.2664 25.4373 24.1639 25.5393 24.0272 25.5393H23.0765ZM22.9119 52.8267H21.9581C21.8277 52.8267 21.7189 52.7154 21.7189 52.5856C21.7189 52.4496 21.8277 52.3477 21.9581 52.3477H22.9119C23.0424 52.3477 23.1511 52.4496 23.1511 52.5856C23.1511 52.7154 23.0424 52.8267 22.9119 52.8267ZM20.6906 25.5393C20.5601 25.5393 20.4514 25.4373 20.4514 25.3013C20.4514 25.1715 20.5601 25.0634 20.6906 25.0634H21.6444C21.7748 25.0634 21.8836 25.1715 21.8836 25.3013C21.8836 25.4373 21.7748 25.5393 21.6444 25.5393H20.6906ZM20.5291 52.8267H19.5784C19.4479 52.8267 19.3392 52.7154 19.3392 52.5856C19.3392 52.4496 19.4479 52.3477 19.5784 52.3477H20.5291C20.6658 52.3477 20.7683 52.4496 20.7683 52.5856C20.7683 52.7154 20.6626 52.8267 20.5291 52.8267ZM18.1493 52.8267H17.1987C17.062 52.8267 16.9564 52.7154 16.9564 52.5856C16.9564 52.4496 17.0651 52.3477 17.1987 52.3477H18.1493C18.2798 52.3477 18.3885 52.4496 18.3885 52.5856C18.3885 52.7154 18.2798 52.8267 18.1493 52.8267ZM15.7696 52.8267H14.8158C14.6854 52.8267 14.5766 52.7154 14.5766 52.5856C14.5766 52.4496 14.6854 52.3477 14.8158 52.3477H15.7696C15.9001 52.3477 16.0088 52.4496 16.0088 52.5856C16.0088 52.7154 15.9001 52.8267 15.7696 52.8267ZM13.3837 52.8267H12.433C12.2963 52.8267 12.1938 52.7154 12.1938 52.5856C12.1938 52.4496 12.2963 52.3477 12.433 52.3477H13.3837C13.5203 52.3477 13.626 52.4496 13.626 52.5856C13.626 52.7154 13.5203 52.8267 13.3837 52.8267ZM11.0039 52.8267H10.0533C9.91658 52.8267 9.81095 52.7154 9.81095 52.5856C9.81095 52.4496 9.91969 52.3477 10.0533 52.3477H11.0039C11.1344 52.3477 11.2431 52.4496 11.2431 52.5856C11.2431 52.7154 11.1344 52.8267 11.0039 52.8267ZM8.62109 52.8267H7.67044C7.53996 52.8267 7.43122 52.7154 7.43122 52.5856C7.43122 52.4496 7.53996 52.3477 7.67044 52.3477H8.62109C8.75778 52.3477 8.86341 52.4496 8.86341 52.5856C8.86341 52.7154 8.75467 52.8267 8.62109 52.8267ZM6.48368 46.8098V44.18C6.48368 43.5496 6.99318 43.0428 7.62694 43.0428H19.3951C20.0227 43.0428 20.5384 43.5496 20.5384 44.18V46.8098C20.5384 47.4341 20.0258 47.9471 19.3951 47.9471H7.62694C6.99318 47.9471 6.48368 47.4341 6.48368 46.8098ZM6.24136 52.8267H6.01146C5.76603 52.8267 5.5175 52.8143 5.27207 52.7958C5.14158 52.7865 5.04217 52.6721 5.0546 52.5393C5.06392 52.4095 5.17886 52.3106 5.31245 52.3229C5.54235 52.3384 5.77846 52.3508 6.01146 52.3508H6.24136C6.37805 52.3508 6.48368 52.4527 6.48368 52.5887C6.48368 52.7154 6.37494 52.8267 6.24136 52.8267ZM4.02317 25.5393C3.89269 25.5393 3.78396 25.4373 3.78396 25.3013C3.78396 25.1715 3.89269 25.0634 4.02317 25.0634H4.97382C5.11052 25.0634 5.21615 25.1715 5.21615 25.3013C5.21615 25.4373 5.10741 25.5393 4.97382 25.5393H4.02317ZM4.11016 52.4002C4.08531 52.5084 3.98589 52.5825 3.88027 52.5825C3.50746 52.5022 3.19058 52.4126 2.88612 52.3044C2.76185 52.2611 2.69661 52.1252 2.74011 51.9985C2.7836 51.8718 2.9203 51.81 3.04767 51.8532C3.33349 51.9521 3.63794 52.0386 3.93619 52.1097C4.06356 52.1406 4.14433 52.2673 4.11016 52.4002ZM2.0411 25.5393C1.89509 25.5393 1.74596 25.5269 1.59995 25.5022C1.47257 25.4775 1.38559 25.3508 1.41044 25.221C1.43529 25.0943 1.56267 25.0047 1.69004 25.0325C1.80499 25.051 1.92615 25.0634 2.04421 25.0634H2.5972C2.72768 25.0634 2.83642 25.1715 2.83642 25.3013C2.83642 25.4373 2.72768 25.5393 2.5972 25.5393H2.0411ZM1.87023 51.6153C1.82674 51.6956 1.74596 51.7389 1.65898 51.7389C1.6217 51.7389 1.5782 51.7296 1.54714 51.7111C1.25511 51.5535 0.975503 51.3742 0.71454 51.1888C0.605806 51.1146 0.584059 50.9632 0.65862 50.855C0.739394 50.7469 0.885409 50.7253 0.99725 50.7994C1.23957 50.9787 1.50364 51.1424 1.77703 51.2908C1.89509 51.3557 1.93858 51.5009 1.87023 51.6153ZM6.40912 25.0634H7.35977C7.49025 25.0634 7.59898 25.1715 7.59898 25.3013C7.59898 25.4373 7.49025 25.5393 7.35977 25.5393H6.40912C6.27242 25.5393 6.16679 25.4373 6.16679 25.3013C6.16369 25.1685 6.27242 25.0634 6.40912 25.0634ZM8.78885 25.0634H9.7395C9.86998 25.0634 9.98182 25.1715 9.98182 25.3013C9.98182 25.4373 9.86998 25.5393 9.7395 25.5393H8.78885C8.65215 25.5393 8.54963 25.4373 8.54963 25.3013C8.54963 25.1685 8.65215 25.0634 8.78885 25.0634ZM11.1686 25.0634H12.1192C12.2559 25.0634 12.3615 25.1715 12.3615 25.3013C12.3615 25.4373 12.2528 25.5393 12.1192 25.5393H11.1686C11.0381 25.5393 10.9294 25.4373 10.9294 25.3013C10.9294 25.1685 11.035 25.0634 11.1686 25.0634ZM13.5483 25.0634H14.5021C14.6325 25.0634 14.7413 25.1715 14.7413 25.3013C14.7413 25.4373 14.6325 25.5393 14.5021 25.5393H13.5483C13.4178 25.5393 13.3091 25.4373 13.3091 25.3013C13.3091 25.1685 13.4178 25.0634 13.5483 25.0634ZM15.9311 25.0634H16.8818C17.0185 25.0634 17.121 25.1715 17.121 25.3013C17.121 25.4373 17.0185 25.5393 16.8818 25.5393H15.9311C15.7945 25.5393 15.6919 25.4373 15.6919 25.3013C15.6919 25.1685 15.7976 25.0634 15.9311 25.0634ZM18.3109 25.0634H19.2646C19.3951 25.0634 19.5038 25.1715 19.5038 25.3013C19.5038 25.4373 19.3951 25.5393 19.2646 25.5393H18.3109C18.1804 25.5393 18.0717 25.4373 18.0717 25.3013C18.0717 25.1685 18.1804 25.0634 18.3109 25.0634ZM40.9649 52.2951C41.2601 52.2426 41.549 52.1592 41.8193 52.0448C41.9435 51.9923 42.0833 52.0448 42.1361 52.1684C42.189 52.292 42.133 52.4311 42.0088 52.4805C41.6981 52.6165 41.375 52.7092 41.0426 52.7649C40.8872 52.768 40.7878 52.6845 40.7692 52.5671C40.7474 52.4404 40.8344 52.3168 40.9649 52.2951ZM42.9346 51.3093C43.1489 51.1023 43.3415 50.8736 43.5 50.6202C43.5714 50.5089 43.7174 50.478 43.8293 50.5491C43.9411 50.6202 43.9722 50.7654 43.9039 50.8767C43.7206 51.1579 43.5062 51.4206 43.2639 51.6523C43.2204 51.6956 43.1614 51.7203 43.0961 51.7203C43.0371 51.7203 42.9718 51.6925 42.9252 51.6462C42.8351 51.5535 42.8351 51.402 42.9346 51.3093ZM44.0033 49.3933C44.0561 49.143 44.0778 48.8896 44.0778 48.6362V48.4971C44.0778 48.3674 44.1866 48.2592 44.3201 48.2592C44.4506 48.2592 44.5594 48.3674 44.5594 48.4971V48.6362C44.5594 48.9267 44.5314 49.211 44.4724 49.486C44.4475 49.6004 44.3481 49.6746 44.2363 49.6746C44.0592 49.6467 43.9753 49.52 44.0033 49.3933ZM44.0778 46.1331C44.0778 45.9971 44.1866 45.892 44.3201 45.892C44.4506 45.892 44.5594 46.0002 44.5594 46.1331V47.0787C44.5594 47.2085 44.4506 47.3167 44.3201 47.3167C44.1835 47.3167 44.0778 47.2085 44.0778 47.0787V46.1331ZM34.9845 25.0634H35.9352C36.0657 25.0634 36.1744 25.1715 36.1744 25.3013C36.1744 25.4373 36.0657 25.5393 35.9352 25.5393H34.9845C34.8478 25.5393 34.7422 25.4373 34.7422 25.3013C34.7422 25.1685 34.8478 25.0634 34.9845 25.0634ZM37.3643 25.0634H38.3149C38.4516 25.0634 38.5572 25.1715 38.5572 25.3013C38.5572 25.4373 38.4485 25.5393 38.3149 25.5393H37.3643C37.2338 25.5393 37.125 25.4373 37.125 25.3013C37.125 25.1685 37.2338 25.0634 37.3643 25.0634ZM39.744 25.0634H40.3529C40.4772 25.0634 40.5983 25.0665 40.7195 25.0788C40.85 25.0912 40.9463 25.2055 40.937 25.3353C40.9245 25.4589 40.822 25.5516 40.6946 25.5516C40.5673 25.5424 40.4585 25.5393 40.3529 25.5362H39.744C39.6135 25.5362 39.5048 25.4342 39.5048 25.2982C39.5048 25.1685 39.6135 25.0634 39.744 25.0634ZM41.8503 25.5856C41.9094 25.4682 42.0523 25.4157 42.1734 25.4744C42.4748 25.6165 42.7637 25.7989 43.0215 26.0121C43.1241 26.0955 43.1396 26.247 43.0588 26.3489C43.006 26.4046 42.9408 26.4355 42.8724 26.4355C42.8165 26.4355 42.7637 26.4169 42.7202 26.3799C42.4841 26.1944 42.2356 26.0306 41.9653 25.9039C41.8441 25.8483 41.7944 25.7031 41.8503 25.5856ZM43.6677 27.0659C43.7827 27.0041 43.9318 27.0412 43.9939 27.1524C44.1648 27.446 44.2953 27.755 44.3916 28.0733C44.4289 28.2 44.3543 28.336 44.2269 28.37C44.0561 28.3824 43.9598 28.3144 43.9287 28.2062C43.8448 27.9219 43.7299 27.6469 43.5776 27.3904C43.5124 27.2791 43.5528 27.1339 43.6677 27.0659ZM44.5594 29.5474V30.4961C44.5594 30.6259 44.4506 30.7341 44.3201 30.7341C44.1835 30.7341 44.0778 30.6259 44.0778 30.4961V29.5474C44.0778 29.4176 44.1866 29.3095 44.3201 29.3095C44.4506 29.3095 44.5594 29.4176 44.5594 29.5474ZM44.5594 32.8664C44.5594 32.9962 44.4506 33.1043 44.3201 33.1043C44.1835 33.1043 44.0778 32.9962 44.0778 32.8664V31.9177C44.0778 31.7879 44.1866 31.6797 44.3201 31.6797C44.4506 31.6797 44.5594 31.7879 44.5594 31.9177V32.8664ZM37.24 33.2341H46.3613V29.2477C46.3613 25.9472 43.6708 23.271 40.3529 23.271H2.4605C1.10288 23.271 0 22.177 0 20.8235V23.784C0.173975 24.0374 0.35727 24.2599 0.556099 24.4422C0.655513 24.5288 0.664833 24.6802 0.571632 24.7791C0.525032 24.8316 0.459791 24.8594 0.397657 24.8594C0.33863 24.8594 0.279603 24.8347 0.233002 24.7914C0.155335 24.7173 0.0745607 24.64 0 24.5566V48.6393C0 51.9397 2.6904 54.6159 6.00835 54.6159H40.3498C43.6677 54.6159 46.3581 51.9397 46.3581 48.6393V44.6528H44.5563C44.5563 44.8413 44.4475 44.9495 44.317 44.9495C44.1803 44.9495 44.0747 44.8413 44.0747 44.7084C44.0747 44.6528 37.2369 44.6528 37.2369 44.6528C34.6832 44.6528 32.6048 42.5854 32.6048 40.0421V37.848C32.6079 35.3016 34.6863 33.2341 37.24 33.2341Z" fill="#121110"/>
<path d="M18.4103 44.4766H8.20166V46.5471H18.4103V44.4766Z" fill="#EC661F"/>
</svg>
