<svg width="345" height="94" viewBox="0 0 345 94" fill="none" xmlns="http://www.w3.org/2000/svg">
<path d="M429.87 105.229C429.87 105.229 357.867 65.2009 307.451 66.823C233.572 69.2001 194.13 150.706 120.822 141.234C56.6605 132.944 -25 62.6224 -25 62.6224" stroke="#BA6102" stroke-width="6"/>
<path d="M429.87 41.4539C429.87 41.4539 357.867 1.42579 307.451 3.04797C233.572 5.42505 181.528 103.899 108.22 94.4273C44.0586 86.137 -25 47.0202 -25 47.0202" stroke="#BA6102" stroke-width="6"/>
<path d="M429.87 65.4572C429.87 65.4572 360.868 31.5956 310.451 33.2178C236.573 35.5948 180.328 124.902 107.02 115.43C42.8584 107.14 -22.5996 56.6213 -22.5996 56.6213" stroke="#BA6102" stroke-width="6"/>
</svg>
