<svg width="24" height="24" viewBox="0 0 24 24" fill="none" xmlns="http://www.w3.org/2000/svg">
<path d="M21.5625 3.10242H2.4375C2.35047 3.10242 2.26701 3.13699 2.20548 3.19852C2.14394 3.26006 2.10937 3.34352 2.10937 3.43054V17.6142C2.10937 17.7012 2.14394 17.7847 2.20548 17.8462C2.26701 17.9077 2.35047 17.9423 2.4375 17.9423H9.64331L9.22631 19.1235C8.8875 19.185 8.58097 19.3633 8.36007 19.6275C8.13917 19.8916 8.01788 20.2248 8.01731 20.5692C8.01728 20.6123 8.02575 20.6549 8.04224 20.6948C8.05872 20.7346 8.08289 20.7708 8.11336 20.8012C8.14383 20.8317 8.18002 20.8559 8.21984 20.8724C8.25966 20.8888 8.30234 20.8973 8.34543 20.8973H15.6546C15.6977 20.8973 15.7403 20.8888 15.7802 20.8724C15.82 20.8559 15.8562 20.8317 15.8866 20.8012C15.9171 20.7708 15.9413 20.7346 15.9578 20.6948C15.9742 20.6549 15.9827 20.6123 15.9827 20.5692C15.9821 20.2248 15.8608 19.8916 15.6399 19.6275C15.419 19.3633 15.1125 19.185 14.7737 19.1235L14.3567 17.9423H21.5625C21.6495 17.9423 21.733 17.9077 21.7945 17.8462C21.8561 17.7847 21.8906 17.7012 21.8906 17.6142V3.43129C21.8907 3.38814 21.8823 3.34539 21.8659 3.30549C21.8494 3.2656 21.8253 3.22934 21.7948 3.19879C21.7643 3.16824 21.7281 3.144 21.6882 3.12747C21.6484 3.11093 21.6056 3.10242 21.5625 3.10242ZM2.76562 5.03048H21.2344V14.641H2.76562V5.03048ZM21.2344 3.75867V4.37423H2.76562V3.75867H21.2344ZM15.2574 20.2414H8.74256C8.80636 20.097 8.91074 19.9741 9.04301 19.8879C9.17528 19.8016 9.32976 19.7556 9.48768 19.7554H14.5125C14.6704 19.7556 14.8248 19.8016 14.9571 19.8879C15.0893 19.9742 15.1936 20.097 15.2574 20.2414ZM14.0691 19.0992H9.93093L10.3393 17.9423H13.6607L14.0691 19.0992ZM2.76562 17.286V15.2972H21.2344V17.286H2.76562Z" fill="#FAFAFA" fill-opacity="0.4"/>
</svg>
