<svg width="24" height="24" viewBox="0 0 24 24" fill="none" xmlns="http://www.w3.org/2000/svg">
<g clip-path="url(#clip0_1_1375)">
<path d="M12 2.76001C11.8031 2.76001 11.6061 2.83506 11.4556 2.9856L6.29116 8.15001H8.46882L12 4.61884L15.5312 8.15001H17.7088L12.5444 2.9856C12.3939 2.83506 12.1969 2.76001 12 2.76001ZM2.75999 9.69001C2.33495 9.69001 1.98999 10.035 1.98999 10.46V12C1.98999 12.425 2.33495 12.77 2.75999 12.77H2.88782L4.08493 19.9527C4.2089 20.6949 4.85159 21.24 5.60388 21.24H18.3946C19.1477 21.24 19.7896 20.6949 19.9135 19.9527L21.1122 12.77H21.24C21.665 12.77 22.01 12.425 22.01 12V10.46C22.01 10.035 21.665 9.69001 21.24 9.69001H2.75999ZM8.91999 12.77C9.3458 12.77 9.68999 13.1142 9.68999 13.54V18.16C9.68999 18.5858 9.3458 18.93 8.91999 18.93C8.49418 18.93 8.14999 18.5858 8.14999 18.16V13.54C8.14999 13.1142 8.49418 12.77 8.91999 12.77ZM12 12.77C12.4258 12.77 12.77 13.1142 12.77 13.54V18.16C12.77 18.5858 12.4258 18.93 12 18.93C11.5742 18.93 11.23 18.5858 11.23 18.16V13.54C11.23 13.1142 11.5742 12.77 12 12.77ZM15.08 12.77C15.5058 12.77 15.85 13.1142 15.85 13.54V18.16C15.85 18.5858 15.5058 18.93 15.08 18.93C14.6542 18.93 14.31 18.5858 14.31 18.16V13.54C14.31 13.1142 14.6542 12.77 15.08 12.77Z" fill="#FAFAFA" fill-opacity="0.4"/>
</g>
<defs>
<clipPath id="clip0_1_1375">
<rect width="24" height="24" fill="white"/>
</clipPath>
</defs>
</svg>
