<svg width="24" height="24" viewBox="0 0 24 24" fill="none" xmlns="http://www.w3.org/2000/svg">
<g clip-path="url(#clip0_1_1384)">
<path d="M15.9938 3.19854C15.7731 3.20198 15.597 3.38339 15.6 3.604C15.6 3.95936 15.5258 4.14173 15.4234 4.28682C15.3211 4.4319 15.1672 4.54872 14.968 4.69072C14.7687 4.83273 14.5233 4.99928 14.325 5.2751C14.1267 5.55092 14 5.92821 14 6.404C13.998 6.54826 14.0738 6.68244 14.1983 6.75516C14.3229 6.82788 14.4771 6.82788 14.6017 6.75516C14.7263 6.68244 14.802 6.54826 14.8 6.404C14.8 6.058 14.8733 5.88368 14.975 5.74229C15.0767 5.60089 15.2313 5.48533 15.432 5.34229C15.6328 5.19924 15.8789 5.02798 16.0766 4.74775C16.2742 4.46752 16.4 4.08665 16.4 3.604C16.4015 3.49588 16.3591 3.39177 16.2826 3.31538C16.2061 3.239 16.1019 3.19685 15.9938 3.19854ZM17.5938 4.39854C17.3731 4.40198 17.197 4.58339 17.2 4.804C17.2 5.01421 17.1564 5.11049 17.0891 5.20322C17.0218 5.29596 16.9107 5.38543 16.7617 5.49619C16.6127 5.60696 16.4256 5.73784 16.2672 5.9501C16.1088 6.16236 16 6.45796 16 6.804C15.998 6.94826 16.0738 7.08244 16.1983 7.15516C16.3229 7.22788 16.4771 7.22788 16.6017 7.15516C16.7263 7.08244 16.802 6.94826 16.8 6.804C16.8 6.60464 16.8412 6.51819 16.9078 6.429C16.9744 6.33981 17.0873 6.24983 17.2383 6.1376C17.3893 6.02536 17.5782 5.89007 17.7359 5.67275C17.8936 5.45544 18 5.1564 18 4.804C18.0015 4.69588 17.9591 4.59177 17.8826 4.51538C17.8061 4.439 17.7019 4.39685 17.5938 4.39854ZM12 8.004C11.7791 8.00403 11.6 8.1831 11.6 8.404V10.2571C11.3691 10.1144 11.1123 10.013 10.8227 10.0087C10.4974 9.54678 10.0061 9.204 9.4 9.204C8.72324 9.204 8.13886 9.5858 7.83203 10.1423C7.63715 10.0571 7.4255 10.004 7.2 10.004C6.90172 10.004 6.63741 10.1085 6.4 10.2509C6.16259 10.1085 5.89828 10.004 5.6 10.004C4.83856 10.004 4.22626 10.5558 4.06797 11.272C3.48489 11.4008 3.03471 11.8302 2.88125 12.404H2.4C2.1791 12.404 2.00002 12.5831 2 12.804V13.9673C2 15.5859 2.8769 16.992 4.01172 18.004H2.4C2.26736 18.0041 2.14341 18.07 2.06908 18.1799C1.99475 18.2897 1.9797 18.4293 2.02891 18.5524L2.48359 19.6907C2.75192 20.3621 3.40489 20.804 4.12812 20.804H19.8719C20.5951 20.804 21.2477 20.3617 21.5164 19.6907L21.9711 18.5524C22.0203 18.4293 22.0052 18.2897 21.9309 18.1799C21.8566 18.07 21.7326 18.0041 21.6 18.004H19.1352C19.394 17.5219 19.5541 16.9627 19.5891 16.3618C20.0316 16.2691 20.4128 16.0253 20.7039 15.7017C21.0774 15.2865 21.3318 14.7508 21.5195 14.1751C21.895 13.0238 22 11.6996 22 10.804C22 10.146 21.458 9.604 20.8 9.604H19.6V8.404C19.6 8.1831 19.4209 8.00403 19.2 8.004H12ZM12.4 8.804H18.8V15.9368C18.7929 15.98 18.7929 16.0241 18.8 16.0673V16.1142C18.8 16.8684 18.537 17.5231 18.1578 18.004H13.0445C12.7591 17.6436 12.539 17.1853 12.4469 16.6603C12.4163 16.4853 12.4 16.3027 12.4 16.1142V12.804V10.5446V8.804ZM9.4 10.004C9.80435 10.004 10.1458 10.2426 10.3047 10.5853C10.3767 10.7408 10.5398 10.8331 10.7102 10.8149C10.7768 10.8077 10.8035 10.804 10.8 10.804C11.0273 10.804 11.2268 10.8973 11.3734 11.0493C11.4341 11.1121 11.5137 11.1532 11.6 11.1665V12.404H3.76406C3.90445 12.1784 4.11082 12.004 4.4 12.004C4.6209 12.004 4.79998 11.8249 4.8 11.604C4.8 11.1573 5.15333 10.804 5.6 10.804C5.80517 10.804 5.98644 10.8815 6.13203 11.0126C6.28428 11.1499 6.51572 11.1499 6.66797 11.0126C6.81356 10.8815 6.99483 10.804 7.2 10.804C7.41493 10.804 7.60558 10.8879 7.75078 11.0267C7.85661 11.1276 8.00907 11.1627 8.14838 11.1183C8.28769 11.0738 8.39166 10.9569 8.41953 10.8134C8.50866 10.3523 8.90881 10.004 9.4 10.004ZM19.6 10.404H20.8C21.026 10.404 21.2 10.578 21.2 10.804C21.2 11.6332 21.0904 12.9092 20.7586 13.9267C20.5927 14.4354 20.3706 14.8762 20.1094 15.1665C19.9516 15.3419 19.7863 15.4582 19.6 15.5282V10.404ZM2.8 13.204H3.2H11.6V16.1142C11.6 16.2102 11.6047 16.3041 11.6125 16.397C11.6516 16.9846 11.811 17.5313 12.0648 18.004H5.30938C3.95968 17.1244 2.8 15.6152 2.8 13.9673V13.204ZM2.99063 18.804H5.17578H12.8055H12.8258H18.3773H21.0094L20.7734 19.3931C20.6253 19.7629 20.2702 20.004 19.8719 20.004H4.12812C3.72976 20.004 3.37424 19.7633 3.22656 19.3938V19.3931L2.99063 18.804Z" fill="#FAFAFA" fill-opacity="0.4"/>
</g>
<defs>
<clipPath id="clip0_1_1384">
<rect width="24" height="24" fill="white"/>
</clipPath>
</defs>
</svg>
