<svg width="46" height="46" viewBox="0 0 46 46" fill="none" xmlns="http://www.w3.org/2000/svg">
<g clip-path="url(#clip0_1_394)">
<path d="M22.8333 3.83337C12.3568 3.83337 3.83331 12.3568 3.83331 22.8334C3.83331 33.3099 12.3568 41.8334 22.8333 41.8334C33.3099 41.8334 41.8333 33.3099 41.8333 22.8334C41.8333 12.3568 33.3099 3.83337 22.8333 3.83337ZM22.8333 6.68337C31.7696 6.68337 38.9833 13.8971 38.9833 22.8334C38.9833 31.7697 31.7696 38.9834 22.8333 38.9834C13.897 38.9834 6.68331 31.7697 6.68331 22.8334C6.68331 13.8971 13.897 6.68337 22.8333 6.68337ZM23.3287 12.3834C19.4212 12.3834 16.2422 15.2012 14.9401 19.0334H12.8583C12.3444 19.0261 11.8664 19.2961 11.6073 19.74C11.3482 20.1839 11.3482 20.7329 11.6073 21.1768C11.8664 21.6206 12.3444 21.8906 12.8583 21.8834H14.4484C14.4215 22.2106 14.2833 22.4996 14.2833 22.8334C14.2833 23.1671 14.4215 23.4562 14.4484 23.7834H12.8583C12.3444 23.7761 11.8664 24.0461 11.6073 24.49C11.3482 24.9339 11.3482 25.4829 11.6073 25.9268C11.8664 26.3706 12.3444 26.6406 12.8583 26.6334H14.9401C16.2422 30.4656 19.4212 33.2834 23.3287 33.2834C26.8821 33.2834 28.7639 31.6414 30.0103 30.4111C30.3726 30.0532 30.5164 29.5291 30.3876 29.0363C30.2587 28.5436 29.8767 28.157 29.3856 28.0222C28.8944 27.8875 28.3686 28.025 28.0064 28.3831C26.76 29.6133 26.1479 30.4334 23.3287 30.4334C21.1249 30.4334 19.1805 28.8964 18.0796 26.6334H22.3583C22.8722 26.6406 23.3502 26.3706 23.6093 25.9268C23.8684 25.4829 23.8684 24.9339 23.6093 24.49C23.3502 24.0461 22.8722 23.7761 22.3583 23.7834H17.2929C17.2581 23.4563 17.1333 23.1747 17.1333 22.8334C17.1333 22.492 17.2581 22.2104 17.2929 21.8834H22.3583C22.8722 21.8906 23.3502 21.6206 23.6093 21.1768C23.8684 20.7329 23.8684 20.1839 23.6093 19.74C23.3502 19.2961 22.8722 19.0261 22.3583 19.0334H18.0796C19.1805 16.7704 21.1249 15.2334 23.3287 15.2334C26.1482 15.2334 26.7605 16.053 28.0064 17.2837C28.3686 17.6417 28.8944 17.7793 29.3856 17.6445C29.8767 17.5098 30.2587 17.1232 30.3876 16.6304C30.5164 16.1377 30.3726 15.6136 30.0103 15.2556C28.7633 14.0239 26.8818 12.3834 23.3287 12.3834Z" fill="#BA6102"/>
</g>
<defs>
<clipPath id="clip0_1_394">
<rect width="46" height="46" fill="white"/>
</clipPath>
</defs>
</svg>
