<svg width="26" height="26" viewBox="0 0 26 26" fill="none" xmlns="http://www.w3.org/2000/svg">
<path fill-rule="evenodd" clip-rule="evenodd" d="M9.00006 16.7492H15.0001C16.1046 16.7492 17.0001 15.853 17.0001 14.7475C17.0001 13.642 16.1046 12.7458 15.0001 12.7458H11.0001C9.89549 12.7458 9.00006 11.8496 9.00006 10.7441C9.00006 9.63862 9.89549 8.74243 11.0001 8.74243H17.0001" fill="#532E0D"/>
<path d="M9.00006 16.7492H15.0001C16.1046 16.7492 17.0001 15.853 17.0001 14.7475V14.7475C17.0001 13.642 16.1046 12.7458 15.0001 12.7458H11.0001C9.89549 12.7458 9.00006 11.8496 9.00006 10.7441V10.7441C9.00006 9.63862 9.89549 8.74243 11.0001 8.74243H17.0001" stroke="#BA6102" stroke-width="1.08712" stroke-linecap="round" stroke-linejoin="round"/>
<path fill-rule="evenodd" clip-rule="evenodd" d="M12.9999 18.7512V6.74097V18.7512Z" fill="#532E0D"/>
<path d="M12.9999 18.7512V6.74097" stroke="#BA6102" stroke-width="1.08712" stroke-linecap="round" stroke-linejoin="round"/>
<path fill-rule="evenodd" clip-rule="evenodd" d="M4.52002 1.41621V4.25863C7.95181 0.828189 13.1095 -0.197289 17.5908 1.65983C22.0721 3.51695 24.9958 7.89145 25 12.7458" fill="#532E0D"/>
<path d="M4.52002 1.41621V4.25863C7.95181 0.828189 13.1095 -0.197289 17.5908 1.65983C22.0721 3.51695 24.9958 7.89145 25 12.7458" stroke="#BA6102" stroke-width="1.08712" stroke-linecap="round" stroke-linejoin="round"/>
<path fill-rule="evenodd" clip-rule="evenodd" d="M21.48 24.0755V21.2331C18.0482 24.6635 12.8905 25.689 8.40923 23.8319C3.92792 21.9748 1.00427 17.6002 1 12.7458" fill="#532E0D"/>
<path d="M21.48 24.0755V21.2331C18.0482 24.6635 12.8905 25.689 8.40923 23.8319C3.92792 21.9748 1.00427 17.6002 1 12.7458" stroke="#BA6102" stroke-width="1.08712" stroke-linecap="round" stroke-linejoin="round"/>
</svg>
