<svg width="30" height="31" viewBox="0 0 30 31" fill="none" xmlns="http://www.w3.org/2000/svg">
<path d="M27.5885 18.0479L25.8936 15.7957C25.905 15.5909 25.8936 15.3748 25.8936 15.2155L27.5885 12.9519C27.6728 12.8417 27.73 12.7134 27.7557 12.5771C27.7814 12.4407 27.7748 12.3003 27.7363 12.167C27.4497 11.1183 27.0332 10.1095 26.4965 9.16403C26.4272 9.04393 26.3321 8.94077 26.218 8.86207C26.1038 8.78336 25.9736 8.73108 25.8367 8.70903L23.0498 8.31091L22.629 7.89003L22.2308 5.10316C22.2086 4.96779 22.1575 4.8388 22.0809 4.72495C22.0044 4.61111 21.9042 4.51509 21.7872 4.44341C20.8368 3.90869 19.8245 3.4923 18.7728 3.20353C18.6396 3.16512 18.4991 3.15848 18.3628 3.18416C18.2265 3.20984 18.0981 3.26713 17.988 3.35141L15.7357 5.03491H15.1442L12.892 3.35141C12.7818 3.26713 12.6534 3.20984 12.5171 3.18416C12.3808 3.15848 12.2404 3.16512 12.1071 3.20353C11.0584 3.49021 10.0496 3.90672 9.1041 4.44341C8.98399 4.51265 8.88084 4.6078 8.80213 4.72193C8.72342 4.83605 8.67114 4.96629 8.6491 5.10316L8.25097 7.89003L7.8301 8.31091L5.04322 8.70903C4.90635 8.73108 4.77612 8.78336 4.66199 8.86207C4.54786 8.94077 4.45272 9.04393 4.38347 9.16403C3.84679 10.1095 3.43027 11.1183 3.1436 12.167C3.10518 12.3003 3.09855 12.4407 3.12423 12.5771C3.14991 12.7134 3.20719 12.8417 3.29147 12.9519L4.98635 15.2042V15.7843L3.29147 18.0479C3.20719 18.1581 3.14991 18.2865 3.12423 18.4228C3.09855 18.5591 3.10518 18.6995 3.1436 18.8328C3.43027 19.8815 3.84679 20.8903 4.38347 21.8358C4.45272 21.9559 4.54786 22.059 4.66199 22.1378C4.77612 22.2165 4.90635 22.2687 5.04322 22.2908L7.8301 22.6889L8.25097 23.1098L8.6491 25.8967C8.67114 26.0335 8.72342 26.1638 8.80213 26.2779C8.88084 26.392 8.98399 26.4872 9.1041 26.5564C10.0496 27.0931 11.0584 27.5096 12.1071 27.7963C12.1847 27.8188 12.2651 27.8303 12.346 27.8304C12.5433 27.833 12.7357 27.7688 12.892 27.6484L15.1442 25.9649H15.7357L17.988 27.6484C18.0981 27.7327 18.2265 27.79 18.3628 27.8157C18.4991 27.8413 18.6396 27.8347 18.7728 27.7963C19.8223 27.5117 20.8313 27.0951 21.7758 26.5564C21.896 26.4872 21.9991 26.392 22.0778 26.2779C22.1565 26.1638 22.2088 26.0335 22.2308 25.8967L22.629 23.0984C22.7655 22.9619 22.9247 22.814 23.0385 22.6889L25.8367 22.2908C25.9736 22.2687 26.1038 22.2165 26.218 22.1378C26.3321 22.059 26.4272 21.9559 26.4965 21.8358C27.0332 20.8903 27.4497 19.8815 27.7363 18.8328C27.7748 18.6995 27.7814 18.5591 27.7557 18.4228C27.73 18.2865 27.6728 18.1581 27.5885 18.0479ZM15.44 20.5049C14.4501 20.5049 13.4824 20.2114 12.6593 19.6614C11.8363 19.1115 11.1948 18.3298 10.816 17.4152C10.4371 16.5007 10.338 15.4944 10.5311 14.5235C10.7243 13.5526 11.2009 12.6608 11.9009 11.9608C12.6009 11.2609 13.4927 10.7842 14.4635 10.5911C15.4344 10.398 16.4408 10.4971 17.3553 10.8759C18.2698 11.2547 19.0515 11.8962 19.6015 12.7193C20.1514 13.5423 20.445 14.51 20.445 15.4999C20.445 16.8273 19.9177 18.1004 18.979 19.039C18.0404 19.9776 16.7674 20.5049 15.44 20.5049Z" fill="white"/>
</svg>
