<svg width="24" height="24" viewBox="0 0 24 24" fill="none" xmlns="http://www.w3.org/2000/svg">
<path d="M9.97313 11.5823C9.17975 11.5822 8.40418 11.8175 7.74448 12.2582C7.08479 12.699 6.57061 13.3255 6.26697 14.0584C5.96333 14.7914 5.88387 15.598 6.03863 16.3761C6.19339 17.1543 6.57542 17.869 7.13641 18.4301C7.6974 18.9911 8.41216 19.3731 9.1903 19.5279C9.96843 19.6827 10.775 19.6033 11.508 19.2997C12.241 18.9961 12.8675 18.4819 13.3083 17.8223C13.7491 17.1626 13.9843 16.387 13.9843 15.5937C13.9831 14.5302 13.5601 13.5106 12.8082 12.7586C12.0562 12.0065 11.0366 11.5835 9.97313 11.5823ZM9.97313 18.9486C9.30954 18.9486 8.66083 18.7519 8.10906 18.3832C7.55728 18.0146 7.12722 17.4906 6.87325 16.8775C6.61929 16.2644 6.55283 15.5898 6.68228 14.939C6.81173 14.2881 7.13128 13.6903 7.60052 13.221C8.06975 12.7518 8.66759 12.4322 9.31844 12.3028C9.96929 12.1733 10.6439 12.2398 11.257 12.4938C11.8701 12.7477 12.3941 13.1778 12.7627 13.7296C13.1314 14.2813 13.3281 14.9301 13.3281 15.5937C13.327 16.4831 12.9732 17.3359 12.3443 17.9648C11.7153 18.5937 10.8626 18.9475 9.97313 18.9486Z" fill="#FAFAFA" fill-opacity="0.4"/>
<path d="M10.6391 14.6023C10.6391 14.6893 10.6737 14.7728 10.7352 14.8343C10.7968 14.8959 10.8802 14.9304 10.9673 14.9304C11.0543 14.9304 11.1377 14.8959 11.1993 14.8343C11.2608 14.7728 11.2954 14.6893 11.2954 14.6023C11.2949 14.3094 11.197 14.0249 11.0171 13.7937C10.8372 13.5625 10.5855 13.3977 10.3016 13.3253V12.9113C10.3016 12.8242 10.2671 12.7408 10.2055 12.6792C10.144 12.6177 10.0605 12.5831 9.9735 12.5831C9.88648 12.5831 9.80302 12.6177 9.74148 12.6792C9.67995 12.7408 9.64538 12.8242 9.64538 12.9113V13.3268C9.36249 13.3997 9.11188 13.5646 8.93294 13.7955C8.75401 14.0264 8.65691 14.3103 8.65691 14.6024C8.65691 14.8945 8.75401 15.1784 8.93294 15.4093C9.11188 15.6402 9.36249 15.8051 9.64538 15.8781V17.1563C9.5448 17.0985 9.46118 17.0154 9.40289 16.9151C9.34461 16.8149 9.31372 16.7011 9.31331 16.5851C9.31331 16.4981 9.27874 16.4146 9.21721 16.3531C9.15567 16.2916 9.07221 16.257 8.98519 16.257C8.89817 16.257 8.81471 16.2916 8.75317 16.3531C8.69163 16.4146 8.65706 16.4981 8.65706 16.5851C8.65775 16.877 8.7551 17.1604 8.93391 17.3911C9.11271 17.6218 9.3629 17.7867 9.64538 17.8601V18.2756C9.64538 18.3627 9.67995 18.4461 9.74148 18.5076C9.80302 18.5692 9.88648 18.6038 9.9735 18.6038C10.0605 18.6038 10.144 18.5692 10.2055 18.5076C10.2671 18.4461 10.3016 18.3627 10.3016 18.2756V17.8618C10.5858 17.7899 10.8378 17.6252 11.0178 17.3939C11.1979 17.1626 11.2956 16.8779 11.2956 16.5848C11.2956 16.2916 11.1979 16.0069 11.0178 15.7756C10.8378 15.5443 10.5858 15.3796 10.3016 15.3077V14.028C10.4037 14.0852 10.4888 14.1686 10.5481 14.2695C10.6074 14.3704 10.6388 14.4853 10.6391 14.6023ZM9.31294 14.6023C9.31334 14.4864 9.34423 14.3725 9.40252 14.2723C9.4608 14.1721 9.54443 14.0889 9.645 14.0312V15.1734C9.54443 15.1157 9.4608 15.0326 9.40252 14.9323C9.34423 14.8321 9.31334 14.7183 9.31294 14.6023ZM10.6391 16.5848C10.6388 16.7018 10.6074 16.8167 10.5481 16.9176C10.4888 17.0185 10.4037 17.1018 10.3016 17.1591V16.0106C10.4037 16.0678 10.4888 16.1511 10.5481 16.252C10.6074 16.3529 10.6388 16.4677 10.6391 16.5848Z" fill="#FAFAFA" fill-opacity="0.4"/>
<path d="M21.5046 17.0938C21.6508 16.9429 21.7493 16.7524 21.7878 16.5459C21.8263 16.3393 21.803 16.1261 21.721 15.9327C21.639 15.7393 21.5018 15.5744 21.3266 15.4585C21.1514 15.3426 20.9459 15.281 20.7358 15.2812H17.2566C16.4295 12.4089 14.5172 9.08904 12.0024 7.8506L13.0667 2.83592C13.0817 2.76532 13.073 2.69174 13.042 2.62658C13.0109 2.56143 12.9592 2.50834 12.8949 2.47554C12.0924 2.1047 11.1879 2.01654 10.3288 2.22542C10.3252 2.22542 10.3217 2.2271 10.3181 2.22785C10.0926 2.28763 9.87382 2.37044 9.66524 2.47498C9.3059 2.65006 8.91157 2.74146 8.51185 2.74234C8.11213 2.74322 7.71741 2.65354 7.3573 2.48004C7.30222 2.45009 7.23971 2.43655 7.17717 2.44102C7.11463 2.44549 7.05468 2.46778 7.00441 2.50526C6.95415 2.54274 6.91567 2.59384 6.89355 2.65251C6.87142 2.71117 6.86656 2.77495 6.87955 2.83629L7.94455 7.85304C4.68749 9.46235 2.19468 14.7795 2.19468 18.444C2.19468 19.6639 2.47949 20.5269 3.06562 21.0819C4.0618 22.0252 5.77387 21.932 7.75668 21.824C8.46805 21.7852 9.20362 21.7453 9.97312 21.7453C10.7426 21.7453 11.4784 21.7852 12.1899 21.824C12.8301 21.8589 13.4214 21.891 13.9671 21.891C14.3458 21.894 14.7244 21.872 15.1003 21.8252C15.2045 21.8582 15.3131 21.875 15.4224 21.875H20.7351C20.9451 21.8753 21.1506 21.8136 21.3258 21.6978C21.5011 21.5819 21.6383 21.417 21.7203 21.2236C21.8023 21.0302 21.8255 20.8169 21.787 20.6104C21.7485 20.4039 21.65 20.2133 21.5038 20.0625C21.6967 19.8635 21.8045 19.5973 21.8045 19.3203C21.8045 19.0432 21.6967 18.777 21.5038 18.578C21.6967 18.3792 21.8046 18.113 21.8046 17.8359C21.8046 17.5589 21.6967 17.2927 21.5038 17.0938H21.5046ZM21.1483 19.3204C21.1482 19.4301 21.1046 19.5354 21.0269 19.613C20.9493 19.6906 20.8441 19.7343 20.7343 19.7344H15.4224C15.3141 19.732 15.211 19.6874 15.1353 19.61C15.0595 19.5326 15.0171 19.4286 15.0171 19.3203C15.0171 19.2119 15.0595 19.1079 15.1353 19.0305C15.211 18.9531 15.3141 18.9085 15.4224 18.9062H20.7351C20.7895 18.9061 20.8434 18.9168 20.8937 18.9376C20.944 18.9584 20.9898 18.9889 21.0283 19.0273C21.0668 19.0658 21.0974 19.1115 21.1183 19.1617C21.1392 19.212 21.1499 19.2659 21.15 19.3204H21.1483ZM15.4224 18.2499C15.3126 18.2499 15.2073 18.2063 15.1297 18.1287C15.052 18.051 15.0084 17.9457 15.0084 17.8359C15.0084 17.7261 15.052 17.6208 15.1297 17.5432C15.2073 17.4655 15.3126 17.4219 15.4224 17.4219H20.7351C20.8449 17.4219 20.9502 17.4655 21.0278 17.5432C21.1054 17.6208 21.1491 17.7261 21.1491 17.8359C21.1491 17.9457 21.1054 18.051 21.0278 18.1287C20.9502 18.2063 20.8449 18.2499 20.7351 18.2499H15.4224ZM21.15 16.3515C21.1499 16.4613 21.1062 16.5665 21.0286 16.6442C20.951 16.7218 20.8458 16.7655 20.736 16.7657H15.4224C15.3141 16.7634 15.211 16.7187 15.1353 16.6413C15.0595 16.5639 15.0171 16.4599 15.0171 16.3516C15.0171 16.2432 15.0595 16.1392 15.1353 16.0618C15.211 15.9844 15.3141 15.9398 15.4224 15.9375H20.7351C20.7895 15.9374 20.8434 15.9481 20.8937 15.9688C20.944 15.9896 20.9898 16.0201 21.0283 16.0585C21.0668 16.097 21.0974 16.1426 21.1183 16.1929C21.1392 16.2432 21.1499 16.297 21.15 16.3515ZM9.96018 3.06092C9.99449 3.04367 10.0288 3.02923 10.0631 3.01385V4.89523C10.0631 4.98225 10.0977 5.06571 10.1592 5.12725C10.2208 5.18878 10.3042 5.22335 10.3912 5.22335C10.4783 5.22335 10.5617 5.18878 10.6233 5.12725C10.6848 5.06571 10.7194 4.98225 10.7194 4.89523V2.81248C11.2733 2.72531 11.8402 2.77882 12.3681 2.9681L11.3109 7.9481C11.3072 7.96043 11.3042 7.97295 11.3019 7.9856C11.2971 7.9984 11.2957 8.0122 11.2976 8.02573V8.04092C11.2631 8.14029 11.0301 8.35235 10.3018 8.40223V7.08748C10.3018 7.00045 10.2672 6.917 10.2057 6.85546C10.1442 6.79392 10.0607 6.75935 9.97368 6.75935C9.88665 6.75935 9.8032 6.79392 9.74166 6.85546C9.68012 6.917 9.64555 7.00045 9.64555 7.08748V8.40185C8.91637 8.35198 8.68368 8.13935 8.64974 8.03998C8.64974 8.03548 8.64974 8.03079 8.64974 8.0261C8.6519 8.01183 8.65035 7.99724 8.64524 7.98373C8.64318 7.97222 8.64049 7.96082 8.63718 7.9496L7.6453 3.28235C8.41776 3.49734 9.24249 3.41844 9.96018 3.06092ZM12.225 21.1687C11.5048 21.1294 10.7601 21.089 9.97255 21.089C9.18505 21.089 8.44068 21.1294 7.72049 21.1687C5.8138 21.2724 4.30799 21.3545 3.51618 20.6062C3.06824 20.1817 2.85037 19.4747 2.85037 18.4447C2.85037 15.0735 5.18943 10.0168 8.15155 8.4821C8.17259 8.51023 8.19512 8.53721 8.21905 8.56292C8.53462 8.89929 9.12449 9.06917 9.97255 9.06917C10.8206 9.06917 11.4107 8.89873 11.7261 8.56292C11.75 8.53727 11.7725 8.51035 11.7936 8.48229C14.0364 9.63392 15.7699 12.626 16.572 15.282H15.4224C15.2124 15.2817 15.0069 15.3434 14.8317 15.4592C14.6564 15.5751 14.5192 15.74 14.4372 15.9334C14.3552 16.1268 14.332 16.3401 14.3705 16.5466C14.409 16.7531 14.5075 16.9437 14.6537 17.0945C14.4607 17.2934 14.3528 17.5596 14.3528 17.8367C14.3528 18.1138 14.4607 18.38 14.6537 18.5788C14.4607 18.7777 14.3527 19.0439 14.3527 19.321C14.3527 19.5981 14.4607 19.8644 14.6537 20.0632C14.5071 20.214 14.4083 20.4047 14.3699 20.6114C14.3314 20.8181 14.3549 21.0316 14.4375 21.225C13.7901 21.2535 13.05 21.2135 12.225 21.1687ZM20.7345 21.2188H15.4224C15.3141 21.2165 15.211 21.1718 15.1353 21.0944C15.0595 21.017 15.0171 20.913 15.0171 20.8047C15.0171 20.6964 15.0595 20.5924 15.1353 20.515C15.211 20.4375 15.3141 20.3929 15.4224 20.3906H20.7351C20.8434 20.3929 20.9464 20.4375 21.0222 20.515C21.098 20.5924 21.1404 20.6964 21.1404 20.8047C21.1404 20.913 21.098 21.017 21.0222 21.0944C20.9464 21.1718 20.8434 21.2165 20.7351 21.2188H20.7345Z" fill="#FAFAFA" fill-opacity="0.4"/>
</svg>
