<svg width="24" height="24" viewBox="0 0 24 24" fill="none" xmlns="http://www.w3.org/2000/svg">
<path d="M10.297 4.03442C9.47675 4.03439 8.67496 4.27757 7.99297 4.73323C7.31098 5.18889 6.77943 5.83655 6.46553 6.59431C6.15164 7.35207 6.0695 8.1859 6.2295 8.99034C6.38951 9.79479 6.78447 10.5337 7.36444 11.1137C7.94441 11.6937 8.68334 12.0886 9.48778 12.2486C10.2922 12.4086 11.1261 12.3265 11.8838 12.0126C12.6416 11.6987 13.2892 11.1671 13.7449 10.4852C14.2006 9.80317 14.4437 9.00138 14.4437 8.18117C14.4424 7.08178 14.0051 6.02779 13.2277 5.2504C12.4503 4.47302 11.3963 4.03571 10.297 4.03442ZM10.297 11.6719C9.60655 11.6719 8.93165 11.4672 8.35758 11.0837C7.78351 10.7001 7.33608 10.155 7.07184 9.51713C6.80761 8.8793 6.73846 8.17743 6.87313 7.50029C7.0078 6.82315 7.34024 6.20115 7.82841 5.71295C8.31658 5.22475 8.93856 4.89228 9.6157 4.75757C10.2928 4.62287 10.9947 4.69198 11.6326 4.95618C12.2704 5.22038 12.8156 5.66779 13.1992 6.24183C13.5827 6.81588 13.7875 7.49077 13.7875 8.18117C13.7864 9.10661 13.4183 9.99385 12.764 10.6482C12.1096 11.3026 11.2224 11.6708 10.297 11.6719Z" fill="#FAFAFA" fill-opacity="0.4"/>
<path d="M10.9995 7.15352C10.9995 7.24055 11.0341 7.32401 11.0956 7.38554C11.1572 7.44708 11.2406 7.48165 11.3276 7.48165C11.4147 7.48165 11.4981 7.44708 11.5597 7.38554C11.6212 7.32401 11.6558 7.24055 11.6558 7.15352C11.6552 6.85074 11.5533 6.55686 11.3665 6.31862C11.1796 6.08038 10.9184 5.91148 10.6245 5.83877V5.40002C10.6245 5.313 10.5899 5.22954 10.5284 5.16801C10.4669 5.10647 10.3834 5.0719 10.2964 5.0719C10.2094 5.0719 10.1259 5.10647 10.0644 5.16801C10.0028 5.22954 9.96827 5.313 9.96827 5.40002V5.84009C9.67545 5.91337 9.41552 6.08241 9.22979 6.32035C9.04405 6.5583 8.94317 6.85149 8.94317 7.15334C8.94317 7.45519 9.04405 7.74838 9.22979 7.98632C9.41552 8.22426 9.67545 8.39331 9.96827 8.46659V9.82127C9.85739 9.76193 9.76462 9.67369 9.69979 9.56592C9.63496 9.45815 9.60049 9.33485 9.60002 9.20909C9.60002 9.12206 9.56545 9.0386 9.50391 8.97707C9.44238 8.91553 9.35892 8.88096 9.27189 8.88096C9.18487 8.88096 9.10141 8.91553 9.03987 8.97707C8.97834 9.0386 8.94377 9.12206 8.94377 9.20909C8.94451 9.51063 9.04565 9.80334 9.23124 10.041C9.41682 10.2787 9.67628 10.4478 9.96864 10.5216V10.9616C9.96864 11.0487 10.0032 11.1321 10.0647 11.1937C10.1263 11.2552 10.2097 11.2898 10.2968 11.2898C10.3838 11.2898 10.4673 11.2552 10.5288 11.1937C10.5903 11.1321 10.6249 11.0487 10.6249 10.9616V10.5238C10.919 10.4516 11.1805 10.2828 11.3674 10.0444C11.5543 9.80604 11.6558 9.51189 11.6558 9.20899C11.6558 8.9061 11.5543 8.61195 11.3674 8.37358C11.1805 8.13522 10.919 7.96641 10.6249 7.89415V6.53796C10.7375 6.59671 10.8319 6.6851 10.8979 6.79358C10.9639 6.90207 10.9991 7.02653 10.9995 7.15352ZM9.60021 7.15352C9.60068 7.02769 9.63519 6.90433 9.70009 6.79651C9.76499 6.6887 9.85785 6.60046 9.96883 6.54115V7.76609C9.85781 7.70675 9.76492 7.61848 9.69999 7.51064C9.63506 7.4028 9.6007 7.2794 9.60021 7.15352ZM10.9995 9.20909C10.999 9.33612 10.9638 9.46061 10.8977 9.56909C10.8317 9.67758 10.7372 9.76595 10.6245 9.82465V8.59334C10.7372 8.65207 10.8317 8.74047 10.8978 8.84899C10.9639 8.95751 10.999 9.08203 10.9995 9.20909Z" fill="#FAFAFA" fill-opacity="0.4"/>
<path d="M12.547 13.2045H5.68821C5.60118 13.2045 5.51772 13.239 5.45619 13.3006C5.39465 13.3621 5.36008 13.4456 5.36008 13.5326C5.36008 13.6196 5.39465 13.7031 5.45619 13.7646C5.51772 13.8261 5.60118 13.8607 5.68821 13.8607H12.547C12.634 13.8607 12.7174 13.8261 12.779 13.7646C12.8405 13.7031 12.8751 13.6196 12.8751 13.5326C12.8751 13.4456 12.8405 13.3621 12.779 13.3006C12.7174 13.239 12.634 13.2045 12.547 13.2045Z" fill="#FAFAFA" fill-opacity="0.4"/>
<path d="M5.68821 15.8282H9.79746C9.88448 15.8282 9.96794 15.7937 10.0295 15.7321C10.091 15.6706 10.1256 15.5871 10.1256 15.5001C10.1256 15.4131 10.091 15.3296 10.0295 15.2681C9.96794 15.2066 9.88448 15.172 9.79746 15.172H5.68821C5.60118 15.172 5.51772 15.2066 5.45619 15.2681C5.39465 15.3296 5.36008 15.4131 5.36008 15.5001C5.36008 15.5871 5.39465 15.6706 5.45619 15.7321C5.51772 15.7937 5.60118 15.8282 5.68821 15.8282Z" fill="#FAFAFA" fill-opacity="0.4"/>
<path d="M12.547 17.1394H5.68821C5.60118 17.1394 5.51772 17.174 5.45619 17.2355C5.39465 17.297 5.36008 17.3805 5.36008 17.4675C5.36008 17.5546 5.39465 17.638 5.45619 17.6995C5.51772 17.7611 5.60118 17.7957 5.68821 17.7957H12.547C12.634 17.7957 12.7174 17.7611 12.779 17.6995C12.8405 17.638 12.8751 17.5546 12.8751 17.4675C12.8751 17.3805 12.8405 17.297 12.779 17.2355C12.7174 17.174 12.634 17.1394 12.547 17.1394Z" fill="#FAFAFA" fill-opacity="0.4"/>
<path d="M9.79746 19.1063H5.68821C5.60118 19.1063 5.51772 19.1409 5.45619 19.2024C5.39465 19.264 5.36008 19.3474 5.36008 19.4344C5.36008 19.5215 5.39465 19.6049 5.45619 19.6665C5.51772 19.728 5.60118 19.7626 5.68821 19.7626H9.79746C9.88448 19.7626 9.96794 19.728 10.0295 19.6665C10.091 19.6049 10.1256 19.5215 10.1256 19.4344C10.1256 19.3474 10.091 19.264 10.0295 19.2024C9.96794 19.1409 9.88448 19.1063 9.79746 19.1063Z" fill="#FAFAFA" fill-opacity="0.4"/>
<path d="M21.1768 11.9454C21.1348 11.9151 21.0863 11.8951 21.0351 11.8871C20.9839 11.8791 20.9315 11.8833 20.8823 11.8993C19.5709 12.3293 18.2179 11.8883 17.9063 11.3775V5.0775C17.9062 4.99049 17.8716 4.90706 17.8101 4.84556L15.1688 2.20556C15.1073 2.14402 15.0238 2.10942 14.9368 2.10938H3.01558C2.92856 2.10938 2.8451 2.14395 2.78356 2.20548C2.72202 2.26702 2.68745 2.35048 2.68745 2.4375V21.5625C2.68745 21.6495 2.72202 21.733 2.78356 21.7945C2.8451 21.8561 2.92856 21.8906 3.01558 21.8906H17.5781C17.6652 21.8906 17.7486 21.8561 17.8102 21.7945C17.8717 21.733 17.9063 21.6495 17.9063 21.5625V20.1549C18.0225 20.0166 18.4313 19.6071 19.6091 18.987C21.2931 18.0999 21.3126 16.587 21.3126 16.5231V12.2106C21.3125 12.1588 21.3002 12.1078 21.2766 12.0617C21.253 12.0156 21.2188 11.9758 21.1768 11.9454ZM15.2657 3.22969L16.7861 4.74994H15.2657V3.22969ZM3.3437 21.2344V2.76562H14.6095V5.07806C14.6094 5.12116 14.6179 5.16384 14.6344 5.20366C14.6509 5.24348 14.675 5.27966 14.7055 5.31014C14.736 5.34061 14.7722 5.36478 14.812 5.38126C14.8518 5.39774 14.8945 5.40621 14.9376 5.40619H17.25V11.3777C16.9384 11.8883 15.5856 12.3294 14.274 11.8993C14.2247 11.883 14.1722 11.8787 14.1209 11.8866C14.0695 11.8946 14.0208 11.9146 13.9787 11.945C13.9366 11.9755 13.9023 12.0154 13.8787 12.0617C13.8551 12.108 13.8428 12.1592 13.8428 12.2111V16.5236C13.8428 16.5876 13.8615 18.1005 15.5462 18.9876C16.7372 19.6147 17.142 20.0265 17.2491 20.1527V21.2349L3.3437 21.2344ZM20.6563 16.5208C20.6563 16.569 20.6254 17.7099 19.3033 18.4063C18.6802 18.709 18.1001 19.0933 17.5783 19.5491C17.0566 19.0933 16.4765 18.709 15.8533 18.4063C14.5313 17.7099 14.5009 16.5688 14.5003 16.5231V12.6375C15.6718 12.8794 16.9476 12.6097 17.5785 12.0082C18.2095 12.6097 19.4848 12.8798 20.6567 12.6375L20.6563 16.5208Z" fill="#FAFAFA" fill-opacity="0.4"/>
<path d="M19.158 14.2438C19.0901 14.1895 19.0033 14.1644 18.9169 14.174C18.8305 14.1836 18.7514 14.2271 18.697 14.295L17.497 15.795L16.9275 15.4725C16.89 15.4502 16.8484 15.4356 16.8052 15.4296C16.7619 15.4236 16.7179 15.4262 16.6758 15.4374C16.6336 15.4486 16.594 15.4681 16.5595 15.4948C16.5249 15.5215 16.496 15.5548 16.4745 15.5927C16.453 15.6307 16.4392 15.6726 16.4341 15.7159C16.429 15.7593 16.4325 15.8032 16.4446 15.8452C16.4566 15.8871 16.4769 15.9262 16.5043 15.9602C16.5316 15.9942 16.5655 16.0225 16.6039 16.0432L17.4163 16.5041C17.4842 16.5426 17.5635 16.5557 17.6401 16.5409C17.7167 16.5262 17.7856 16.4846 17.8343 16.4237L19.2092 14.705C19.2362 14.6714 19.2562 14.6328 19.2682 14.5914C19.2802 14.55 19.284 14.5066 19.2792 14.4638C19.2745 14.421 19.2613 14.3795 19.2405 14.3417C19.2197 14.304 19.1917 14.2707 19.158 14.2438Z" fill="#FAFAFA" fill-opacity="0.4"/>
</svg>
