<svg width="24" height="24" viewBox="0 0 24 24" fill="none" xmlns="http://www.w3.org/2000/svg">
<g clip-path="url(#clip0_1_1393)">
<path d="M4.52998 2.04004C3.15467 2.04004 2.03998 3.15473 2.03998 4.53004V16.98V18.225C2.03998 18.9123 2.59774 19.47 3.28498 19.47C3.97222 19.47 4.52998 18.9123 4.52998 18.225V17.4777C5.57229 17.6208 6.94592 17.749 8.67998 17.7922V17.2346C8.67998 16.2029 9.16072 15.2486 9.95254 14.6327L10.6626 12.5771C10.7348 12.3688 10.8311 12.1754 10.9398 11.9903C10.6161 11.9961 10.2786 12 9.92498 12C7.02662 12 5.13973 11.7475 4.26574 11.5948C3.9354 11.5375 3.69998 11.2492 3.69998 10.9139V7.02004H16.15V10.34H17.81V4.53004C17.81 3.15473 16.6953 2.04004 15.32 2.04004H4.52998ZM7.01998 3.70004H12.83C13.2881 3.70004 13.66 4.07188 13.66 4.53004C13.66 4.9882 13.2881 5.36004 12.83 5.36004H7.01998C6.56182 5.36004 6.18998 4.9882 6.18998 4.53004C6.18998 4.07188 6.56182 3.70004 7.01998 3.70004ZM13.801 12C13.093 12 12.4634 12.4488 12.2318 13.1186L11.3305 15.7302C10.7337 15.9891 10.34 16.5747 10.34 17.2346V19.47V20.5562V21.13C10.34 21.5882 10.7118 21.96 11.17 21.96C11.6281 21.96 12 21.5882 12 21.13V20.8139C13.1321 20.9666 14.6825 21.13 16.15 21.13C17.6174 21.13 19.1679 20.9666 20.3 20.8139V21.13C20.3 21.5882 20.6718 21.96 21.13 21.96C21.5881 21.96 21.96 21.5882 21.96 21.13V20.5562V19.47V17.2346C21.96 16.5747 21.5663 15.9883 20.9695 15.7286L20.0682 13.1186C19.8374 12.4496 19.2069 12 18.4989 12H13.801ZM4.94498 13.66C5.63222 13.66 6.18998 14.2178 6.18998 14.905C6.18998 15.5923 5.63222 16.15 4.94498 16.15C4.25774 16.15 3.69998 15.5923 3.69998 14.905C3.69998 14.2178 4.25774 13.66 4.94498 13.66ZM12.83 16.98C13.2881 16.98 13.66 17.3519 13.66 17.81C13.66 18.2682 13.2881 18.64 12.83 18.64C12.3718 18.64 12 18.2682 12 17.81C12 17.3519 12.3718 16.98 12.83 16.98ZM19.47 16.98C19.9281 16.98 20.3 17.3519 20.3 17.81C20.3 18.2682 19.9281 18.64 19.47 18.64C19.0118 18.64 18.64 18.2682 18.64 17.81C18.64 17.3519 19.0118 16.98 19.47 16.98ZM15.4983 17.81H16.8179C17.1748 17.81 17.4928 18.038 17.6057 18.3774L17.9543 19.423C16.6702 19.4512 16.6032 19.47 16.15 19.47C15.6968 19.47 15.6484 19.4505 14.3635 19.4214L14.7104 18.3774C14.8233 18.038 15.1406 17.81 15.4983 17.81Z" fill="#FAFAFA" fill-opacity="0.4"/>
</g>
<defs>
<clipPath id="clip0_1_1393">
<rect width="24" height="24" fill="white"/>
</clipPath>
</defs>
</svg>
