<svg width="31" height="23" viewBox="0 0 31 23" fill="none" xmlns="http://www.w3.org/2000/svg">
<path d="M19.4225 0.522217C17.4232 0.522189 15.4634 1.0789 13.7627 2.12998C12.062 3.18106 10.6876 4.68497 9.79343 6.47319V6.47319C9.04705 7.95098 8.65781 9.58327 8.657 11.2389C8.66127 11.4906 8.57061 11.7347 8.40305 11.9227C8.2355 12.1106 8.00333 12.2286 7.75275 12.2531C7.61834 12.2632 7.4833 12.2454 7.3561 12.2008C7.2289 12.1562 7.11229 12.0858 7.0136 11.994C6.91491 11.9022 6.83627 11.791 6.78263 11.6674C6.72898 11.5437 6.70148 11.4103 6.70186 11.2755C6.70235 9.90949 6.92099 8.55232 7.3495 7.25525C7.3781 7.17254 7.38397 7.08367 7.36649 6.99792C7.34902 6.91217 7.30885 6.83269 7.25017 6.76777C7.19149 6.70285 7.11646 6.65487 7.0329 6.62884C6.94935 6.60282 6.86034 6.59971 6.77518 6.61982C5.08015 7.04004 3.57454 8.01549 2.49826 9.39073C1.42198 10.766 0.83696 12.4619 0.836426 14.2082C0.836426 18.5095 4.47788 22.0288 8.76698 22.0288H19.4103C22.2623 22.0304 24.998 20.8991 27.0158 18.8836C29.0336 16.8681 30.1681 14.1336 30.1697 11.2816C30.1713 8.42967 29.0399 5.69388 27.0245 3.6761C25.009 1.65832 22.2745 0.523837 19.4225 0.522217V0.522217ZM23.2717 15.6379L19.1292 19.7926C18.9403 19.9699 18.6918 20.0701 18.4327 20.0737C18.1731 20.0726 17.9239 19.972 17.7362 19.7926L13.5937 15.6379C13.4253 15.452 13.3347 15.2083 13.3409 14.9575C13.3471 14.7066 13.4495 14.4677 13.6269 14.2903C13.8044 14.1128 14.0432 14.0104 14.2941 14.0043C14.545 13.9981 14.7886 14.0886 14.9746 14.2571L17.4552 16.7377V9.32037C17.4552 9.0611 17.5581 8.81245 17.7415 8.62912C17.9248 8.44579 18.1735 8.3428 18.4327 8.3428C18.692 8.3428 18.9406 8.44579 19.124 8.62912C19.3073 8.81245 19.4103 9.0611 19.4103 9.32037V16.7377L21.8909 14.2571C22.0768 14.0886 22.3205 13.9981 22.5713 14.0043C22.8222 14.0104 23.0611 14.1128 23.2385 14.2903C23.416 14.4677 23.5184 14.7066 23.5246 14.9575C23.5307 15.2083 23.4402 15.452 23.2717 15.6379V15.6379Z" fill="#BA6102"/>
</svg>
