<svg width="30" height="31" viewBox="0 0 30 31" fill="none" xmlns="http://www.w3.org/2000/svg">
<path d="M24.9285 12.7358L15.8285 4.46619C15.493 4.15924 15.0547 3.98901 14.6 3.98901C14.1453 3.98901 13.707 4.15924 13.3715 4.46619L4.27149 12.7358C4.08517 12.9063 3.93637 13.1136 3.83453 13.3447C3.7327 13.5758 3.68007 13.8255 3.67999 14.0781V24.5544C3.67259 25.0133 3.83458 25.4588 4.13499 25.8057C4.30549 25.9996 4.51552 26.1547 4.75096 26.2606C4.98641 26.3666 5.24181 26.4209 5.49999 26.4199H10.96C11.2013 26.4199 11.4328 26.3241 11.6035 26.1534C11.7741 25.9827 11.87 25.7513 11.87 25.5099V20.0499C11.87 19.8086 11.9659 19.5771 12.1365 19.4065C12.3072 19.2358 12.5386 19.1399 12.78 19.1399H16.42C16.6613 19.1399 16.8928 19.2358 17.0635 19.4065C17.2341 19.5771 17.33 19.8086 17.33 20.0499V25.5099C17.33 25.7513 17.4259 25.9827 17.5965 26.1534C17.7672 26.3241 17.9986 26.4199 18.24 26.4199H23.7C24.0018 26.4226 24.2994 26.3482 24.5645 26.2038C24.8529 26.0467 25.0939 25.8149 25.262 25.5328C25.4301 25.2506 25.5192 24.9284 25.52 24.5999V14.0781C25.5199 13.8255 25.4673 13.5758 25.3654 13.3447C25.2636 13.1136 25.1148 12.9063 24.9285 12.7358V12.7358Z" fill="#BA6102"/>
</svg>
