<svg width="30" height="31" viewBox="0 0 30 31" fill="none" xmlns="http://www.w3.org/2000/svg">
<path d="M26.5883 23.69H25.6783V5.48996C25.6783 5.24861 25.5825 5.01715 25.4118 4.84649C25.2412 4.67583 25.0097 4.57996 24.7683 4.57996H18.3983C18.157 4.57996 17.9255 4.67583 17.7549 4.84649C17.5842 5.01715 17.4883 5.24861 17.4883 5.48996V10.04H12.0283C11.787 10.04 11.5555 10.1358 11.3849 10.3065C11.2142 10.4771 11.1183 10.7086 11.1183 10.95V15.5H5.65834C5.417 15.5 5.18554 15.5958 5.01488 15.7665C4.84422 15.9371 4.74834 16.1686 4.74834 16.41V23.69H3.83834C3.597 23.69 3.36554 23.7858 3.19488 23.9565C3.02422 24.1271 2.92834 24.3586 2.92834 24.6C2.92834 24.8413 3.02422 25.0728 3.19488 25.2434C3.36554 25.4141 3.597 25.51 3.83834 25.51H26.5883C26.8297 25.51 27.0612 25.4141 27.2318 25.2434C27.4025 25.0728 27.4983 24.8413 27.4983 24.6C27.4983 24.3586 27.4025 24.1271 27.2318 23.9565C27.0612 23.7858 26.8297 23.69 26.5883 23.69ZM12.9383 11.86H17.4883V23.69H12.9383V11.86ZM6.56834 17.32H11.1183V23.69H6.56834V17.32Z" fill="white"/>
</svg>
