<svg width="18" height="18" viewBox="0 0 18 18" fill="none" xmlns="http://www.w3.org/2000/svg">
<path d="M8.72815 4.67849C8.72815 5.1663 9.125 5.56311 9.61277 5.56311H14.0378C13.9768 5.46861 13.9058 5.38042 13.8252 5.29976L8.99146 0.46595C8.91076 0.385258 8.82246 0.314257 8.72815 0.253296V4.67849Z" fill="#BA6102"/>
<path d="M14.2827 6.25539H9.6127C8.74309 6.25539 8.03578 5.54808 8.03578 4.67847V0.00846152C7.98078 0.0030769 7.92501 0 7.86885 0H1.57692C0.707308 0 0 0.707308 0 1.57692V15.805C0 16.6746 0.707308 17.3819 1.57692 17.3819H10.6704C9.73693 16.4946 9.1977 15.2592 9.1977 13.945C9.1977 11.3273 11.3273 9.1977 13.945 9.1977C14.0616 9.1977 14.1769 9.20193 14.2912 9.21039V6.42231C14.2912 6.36616 14.2881 6.31039 14.2827 6.25539ZM8.38193 12.7692H4.055C3.86385 12.7692 3.70885 12.6142 3.70885 12.4231C3.70885 12.2319 3.86385 12.0769 4.055 12.0769H8.38193C8.57309 12.0769 8.72809 12.2319 8.72809 12.4231C8.72809 12.6142 8.57309 12.7692 8.38193 12.7692ZM9.61809 9.06039H4.055C3.86385 9.06039 3.70885 8.90539 3.70885 8.71424C3.70885 8.52309 3.86385 8.36809 4.055 8.36809H9.61809C9.80924 8.36809 9.96424 8.52309 9.96424 8.71424C9.96424 8.90539 9.80924 9.06039 9.61809 9.06039Z" fill="#BA6102"/>
<path d="M13.945 9.88977C11.7091 9.88977 9.89001 11.7089 9.89001 13.9448C9.89001 15.3064 10.5679 16.5696 11.7032 17.3237C12.3675 17.7659 13.1427 17.9997 13.945 17.9997C16.1809 17.9997 18 16.1807 18 13.9447C18 11.7088 16.1809 9.88977 13.945 9.88977ZM15.7673 12.9717C15.7673 12.9717 13.9061 15.3422 13.9036 15.3454C13.7774 15.506 13.5306 15.5204 13.3866 15.3764L12.1503 14.1401C12.0151 14.0049 12.0151 13.7857 12.1503 13.6505C12.2855 13.5154 12.5047 13.5154 12.6399 13.6505L13.6001 14.6108L15.2228 12.5442C15.3409 12.3938 15.5585 12.3677 15.7088 12.4857C15.8592 12.6038 15.8854 12.8214 15.7673 12.9717Z" fill="#BA6102"/>
</svg>
