<svg width="24" height="24" viewBox="0 0 24 24" fill="none" xmlns="http://www.w3.org/2000/svg">
<g clip-path="url(#clip0_1_1402)">
<path d="M4.32185 2.02502C3.79685 3.18167 3.59998 4.53108 3.59998 5.8969C3.59998 10.8352 6.8238 14.9655 10.95 15.5766V19.875H6.74998V21.975H17.25V19.875H13.05V15.5766C17.1761 14.9655 20.4 10.8352 20.4 5.8969C20.4 4.53108 20.2031 3.18167 19.6781 2.02502H4.32185ZM5.89685 4.12502H18.1031C18.2097 4.75667 18.3 5.26526 18.3 5.8969C18.3 6.00764 18.3041 6.11838 18.3 6.22502H7.79998C7.79998 9.70725 8.99353 12.0492 10.4578 13.3125C7.73025 12.4676 5.69998 9.45295 5.69998 5.8969C5.69998 5.26526 5.79021 4.75667 5.89685 4.12502Z" fill="#FAFAFA" fill-opacity="0.4"/>
</g>
<defs>
<clipPath id="clip0_1_1402">
<rect width="24" height="24" fill="white"/>
</clipPath>
</defs>
</svg>
