<svg width="24" height="24" viewBox="0 0 24 24" fill="none" xmlns="http://www.w3.org/2000/svg">
<path d="M21.3375 6.32196C21.1826 6.15366 20.9944 6.01927 20.785 5.92727C20.5755 5.83526 20.3492 5.78764 20.1205 5.7874H15.3906V5.17746C15.3902 4.83877 15.2555 4.51405 15.0161 4.27456C14.7766 4.03507 14.4518 3.90037 14.1131 3.90002H9.8869C9.54824 3.90037 9.22355 4.03504 8.98407 4.27449C8.74458 4.51394 8.60986 4.83862 8.60946 5.17727V5.78721H3.87884C3.64997 5.78718 3.4236 5.83466 3.21404 5.92666C3.00448 6.01866 2.81631 6.15316 2.66143 6.32166C2.50656 6.49016 2.38835 6.68898 2.31431 6.90554C2.24026 7.12209 2.21199 7.35166 2.23128 7.57971L2.86053 15.0188C2.86676 15.0921 2.89746 15.1612 2.94768 15.215C2.9979 15.2688 3.06474 15.3041 3.13746 15.3154L3.43353 15.361V19.7723C3.43353 19.8593 3.4681 19.9428 3.52963 20.0043C3.59117 20.0658 3.67463 20.1004 3.76165 20.1004H20.2382C20.2813 20.1004 20.324 20.092 20.3638 20.0755C20.4036 20.059 20.4398 20.0348 20.4703 20.0043C20.5008 19.9739 20.5249 19.9377 20.5414 19.8979C20.5579 19.8581 20.5664 19.8154 20.5663 19.7723V15.3604L20.8626 15.3148C20.9353 15.3036 21.0022 15.2682 21.0524 15.2144C21.1026 15.1606 21.1333 15.0915 21.1395 15.0182L21.7688 7.57971C21.7876 7.35165 21.7591 7.12216 21.6848 6.90569C21.6106 6.68922 21.4924 6.49047 21.3375 6.32196ZM9.26515 5.17821C9.26513 5.09655 9.28119 5.01568 9.31243 4.94022C9.34366 4.86477 9.38945 4.7962 9.44719 4.73845C9.50493 4.68069 9.57348 4.63488 9.64892 4.60362C9.72437 4.57236 9.80524 4.55627 9.8869 4.55627H14.1131C14.2778 4.55642 14.4357 4.62189 14.5522 4.73831C14.6686 4.85474 14.7341 5.0126 14.7343 5.17727V5.78721H9.26571L9.26515 5.17821ZM19.9095 19.4443H4.08978V15.4616L10.3823 16.4325C10.3951 16.8531 10.5711 17.2521 10.8731 17.545C11.1751 17.8379 11.5793 18.0018 12 18.0018C12.4207 18.0018 12.8249 17.8379 13.1269 17.545C13.4289 17.2521 13.605 16.8531 13.6178 16.4325L19.9101 15.4616L19.9095 19.4443ZM11.0357 16.3802V14.5853C11.0357 14.3295 11.1373 14.0842 11.3182 13.9034C11.499 13.7226 11.7443 13.621 12 13.621C12.2558 13.621 12.5011 13.7226 12.6819 13.9034C12.8627 14.0842 12.9643 14.3295 12.9643 14.5853V16.3802C12.9643 16.636 12.8627 16.8812 12.6819 17.0621C12.5011 17.2429 12.2558 17.3445 12 17.3445C11.7443 17.3445 11.499 17.2429 11.3182 17.0621C11.1373 16.8812 11.0357 16.636 11.0357 16.3802ZM21.114 7.5244L20.5073 14.7056L13.6206 15.7688V14.5853C13.6206 14.1555 13.4499 13.7433 13.1459 13.4394C12.842 13.1354 12.4298 12.9647 12 12.9647C11.5702 12.9647 11.158 13.1354 10.8541 13.4394C10.5502 13.7433 10.3795 14.1555 10.3795 14.5853V15.7688L3.49278 14.7056L2.88603 7.5244C2.87437 7.38686 2.8914 7.2484 2.93606 7.1178C2.98072 6.98719 3.05202 6.86729 3.14544 6.76568C3.23887 6.66408 3.35238 6.58299 3.47879 6.52755C3.6052 6.47212 3.74175 6.44355 3.87978 6.44365H20.122C20.26 6.44355 20.3965 6.47212 20.5229 6.52755C20.6494 6.58299 20.7629 6.66408 20.8563 6.76568C20.9497 6.86729 21.021 6.98719 21.0657 7.1178C21.1103 7.2484 21.1274 7.38686 21.1157 7.5244H21.114Z" fill="#FAFAFA" fill-opacity="0.4"/>
<path d="M12.6338 14.6211C12.6338 14.4957 12.5966 14.3732 12.527 14.269C12.4573 14.1647 12.3584 14.0835 12.2425 14.0355C12.1267 13.9876 11.9993 13.975 11.8764 13.9995C11.7534 14.0239 11.6405 14.0843 11.5519 14.1729C11.4633 14.2616 11.4029 14.3745 11.3784 14.4974C11.354 14.6204 11.3665 14.7478 11.4145 14.8636C11.4625 14.9794 11.5437 15.0784 11.6479 15.148C11.7521 15.2176 11.8747 15.2548 12 15.2548C12.168 15.2546 12.3291 15.1878 12.4479 15.069C12.5667 14.9502 12.6336 14.7891 12.6338 14.6211Z" fill="#FAFAFA" fill-opacity="0.4"/>
</svg>
