<svg width="24" height="24" viewBox="0 0 24 24" fill="none" xmlns="http://www.w3.org/2000/svg">
<path d="M21.5625 8.35636H20.0946C20.0075 8.35636 19.9241 8.39093 19.8626 8.45246C19.801 8.514 19.7664 8.59746 19.7664 8.68448V9.68929L19.7426 9.74067L18.1941 5.37811C18.1714 5.3142 18.1295 5.25889 18.0742 5.21977C18.0188 5.18065 17.9527 5.15965 17.8849 5.15967H6.11513C6.04734 5.15965 5.98121 5.18065 5.92584 5.21977C5.87047 5.25889 5.82858 5.3142 5.80595 5.37811L4.25738 9.74067L4.23357 9.68929V8.68448C4.23357 8.59746 4.199 8.514 4.13746 8.45246C4.07593 8.39093 3.99247 8.35636 3.90545 8.35636H2.43751C2.35048 8.35636 2.26702 8.39093 2.20549 8.45246C2.14395 8.514 2.10938 8.59746 2.10938 8.68448V9.76167C2.10938 9.84869 2.14395 9.93215 2.20549 9.99369C2.26702 10.0552 2.35048 10.0898 2.43751 10.0898H3.69582L3.94632 10.6313L3.10501 13.2717C3.09582 13.3021 3.09108 13.3337 3.09095 13.3654C3.09095 13.3677 3.08944 13.3697 3.08944 13.372V16.1985C3.08944 16.2856 3.12402 16.369 3.18555 16.4306C3.24709 16.4921 3.33055 16.5267 3.41757 16.5267H3.47645V17.55C3.47684 17.8921 3.61291 18.22 3.85478 18.4618C4.09666 18.7037 4.42459 18.8397 4.76663 18.84H5.61488C5.95692 18.8397 6.28486 18.7037 6.52673 18.4618C6.76861 18.22 6.90467 17.8921 6.90507 17.55V16.5263H17.0949V17.55C17.0953 17.8921 17.2314 18.22 17.4733 18.4618C17.7152 18.7037 18.0431 18.8397 18.3851 18.84H19.2334C19.5754 18.8397 19.9034 18.7037 20.1452 18.4618C20.3871 18.22 20.5232 17.8921 20.5236 17.55V16.5263H20.5824C20.6695 16.5263 20.7529 16.4917 20.8145 16.4302C20.876 16.3687 20.9106 16.2852 20.9106 16.1982V13.3712C20.9106 13.3692 20.9093 13.3673 20.9091 13.365C20.909 13.3333 20.9042 13.3017 20.895 13.2713L20.0537 10.6313L20.3042 10.0907H21.5625C21.6495 10.0907 21.733 10.0562 21.7945 9.99462C21.8561 9.93309 21.8906 9.84963 21.8906 9.76261V8.68448C21.8906 8.59746 21.8561 8.514 21.7945 8.45246C21.733 8.39093 21.6495 8.35636 21.5625 8.35636ZM6.34688 5.81592H17.6531L19.2375 10.2801H18.8526L17.5089 6.42642C17.4866 6.36211 17.4447 6.30636 17.3892 6.26692C17.3337 6.22747 17.2673 6.20628 17.1992 6.20629H6.80082C6.73275 6.20627 6.66636 6.22743 6.61085 6.26684C6.55535 6.30625 6.51349 6.36196 6.49107 6.42623L5.14726 10.2801H4.76251L6.34688 5.81592ZM18.1577 10.2801H5.84232L7.03407 6.86254H16.9659L18.1577 10.2801ZM3.57732 9.43354H2.76563V9.01261H3.57732V9.43354ZM5.33982 13.6994C5.40258 14.0492 5.58633 14.3658 5.85893 14.5938C6.13152 14.8219 6.47561 14.9468 6.83101 14.9468C7.18641 14.9468 7.53049 14.8219 7.80309 14.5938C8.07568 14.3658 8.25943 14.0492 8.3222 13.6994H15.6773C15.74 14.0492 15.9238 14.3658 16.1964 14.5938C16.469 14.8219 16.813 14.9468 17.1684 14.9468C17.5238 14.9468 17.8679 14.8219 18.1405 14.5938C18.4131 14.3658 18.5969 14.0492 18.6596 13.6994H20.2534V15.8704H3.74569V13.6994H5.33982ZM5.97076 13.4301C5.97079 13.26 6.02128 13.0937 6.11583 12.9522C6.21037 12.8108 6.34474 12.7006 6.50193 12.6355C6.65913 12.5704 6.83209 12.5534 6.99895 12.5866C7.16581 12.6198 7.31907 12.7018 7.43936 12.8221C7.55965 12.9424 7.64156 13.0957 7.67474 13.2625C7.70792 13.4294 7.69087 13.6024 7.62576 13.7595C7.56064 13.9167 7.45038 14.0511 7.30892 14.1456C7.16745 14.2401 7.00114 14.2905 6.83101 14.2905C6.60301 14.2901 6.38449 14.1993 6.22334 14.038C6.0622 13.8767 5.97157 13.6581 5.97132 13.4301H5.97076ZM17.1679 12.5699C17.3381 12.5698 17.5045 12.6203 17.646 12.7148C17.7875 12.8093 17.8978 12.9437 17.963 13.1009C18.0281 13.2582 18.0452 13.4312 18.012 13.5981C17.9788 13.765 17.8968 13.9184 17.7765 14.0387C17.6561 14.1591 17.5028 14.241 17.3359 14.2742C17.169 14.3074 16.9959 14.2903 16.8387 14.2252C16.6815 14.16 16.5471 14.0497 16.4526 13.9082C16.358 13.7667 16.3076 13.6003 16.3076 13.4301C16.3079 13.2019 16.3987 12.9832 16.5601 12.8219C16.7215 12.6607 16.9403 12.57 17.1684 12.5699H17.1679ZM6.24882 17.55C6.24862 17.7181 6.18176 17.8792 6.06291 17.998C5.94406 18.1168 5.78293 18.1836 5.61488 18.1838H4.76663C4.59858 18.1836 4.43745 18.1168 4.3186 17.998C4.19975 17.8792 4.13289 17.7181 4.1327 17.55V16.5263H6.24882V17.55ZM19.8673 17.55C19.8671 17.7181 19.8003 17.8792 19.6814 17.998C19.5626 18.1168 19.4014 18.1836 19.2334 18.1838H18.3851C18.2171 18.1836 18.056 18.1168 17.9371 17.998C17.8183 17.8792 17.7514 17.7181 17.7512 17.55V16.5263H19.8673V17.55ZM18.6332 13.0431C18.5482 12.7194 18.3583 12.433 18.0933 12.2286C17.8283 12.0243 17.5031 11.9134 17.1684 11.9134C16.8338 11.9134 16.5086 12.0243 16.2436 12.2286C15.9786 12.433 15.7887 12.7194 15.7037 13.0431H8.29632C8.2113 12.7194 8.02146 12.433 7.75646 12.2286C7.49146 12.0243 7.16623 11.9134 6.83157 11.9134C6.49691 11.9134 6.17168 12.0243 5.90668 12.2286C5.64168 12.433 5.45184 12.7194 5.36682 13.0431H3.86682L4.53751 10.9364H19.4625L20.1336 13.0431H18.6332ZM21.2344 9.43354H20.4227V9.01261H21.2344V9.43354Z" fill="#FAFAFA" fill-opacity="0.4"/>
</svg>
